<?xml version="1.0" encoding="UTF-8"?>
<svg version="1.1" xmlns="http://www.w3.org/2000/svg" width="512" height="512">
<path d="M0 0 C12.87 0 25.74 0 39 0 C39.90418999 3.61675995 40.12663375 6.30253294 40.12939453 9.99023438 C40.13254669 11.19828735 40.13569885 12.40634033 40.13894653 13.65100098 C40.1369223 14.95210815 40.13489807 16.25321533 40.1328125 17.59375 C40.13348646 18.94608579 40.13445725 20.29842146 40.13571167 21.65075684 C40.13718431 24.48186397 40.13504803 27.31293951 40.13037109 30.14404297 C40.12467406 33.76888291 40.12795538 37.3936488 40.13394356 41.01848602 C40.13756088 43.8100439 40.13640519 46.60158429 40.13381577 49.3931427 C40.13282637 51.37842863 40.13585788 53.36371525 40.13894653 55.34899902 C40.13421829 57.16107849 40.13421829 57.16107849 40.12939453 59.00976562 C40.12859894 60.07247681 40.12780334 61.13518799 40.12698364 62.23010254 C40 65 40 65 39 69 C48.57 69 58.14 69 68 69 C68 46.23 68 23.46 68 0 C81.2 0 94.4 0 108 0 C108 24.42 108 48.84 108 74 C95.46 74 82.92 74 70 74 C70 191.48 70 308.96 70 430 C59.44 430 48.88 430 38 430 C38 312.52 38 195.04 38 74 C25.46 74 12.92 74 0 74 C-1.27791158 71.44417684 -1.12703027 69.64005447 -1.12939453 66.77856445 C-1.13254669 65.68594803 -1.13569885 64.5933316 -1.13894653 63.46760559 C-1.1369223 62.27817856 -1.13489807 61.08875153 -1.1328125 59.86328125 C-1.13376923 58.63651169 -1.13472595 57.40974213 -1.13571167 56.14579773 C-1.13656875 52.86850236 -1.13253692 49.59125396 -1.12695312 46.31396484 C-1.12375509 43.0367774 -1.13137429 39.75960485 -1.13671875 36.48242188 C-1.13605682 33.94270809 -1.13477328 31.40299437 -1.1328125 28.86328125 C-1.13483673 27.70016922 -1.13686096 26.53705719 -1.13894653 25.33869934 C-1.1152435 16.8145055 -0.57006531 8.55097965 0 0 Z " fill="#3B70C9" transform="translate(14,44)"/>
<path d="M0 0 C0.7425 0.2475 1.485 0.495 2.25 0.75 C2.25 1.41 2.25 2.07 2.25 2.75 C3.24 3.08 4.23 3.41 5.25 3.75 C6.81618444 5.44102522 8.30780525 7.20206388 9.75 9 C10.5234375 9.95390625 11.296875 10.9078125 12.09375 11.890625 C31.1557651 37.16851458 23.41360881 80.72889994 19.4347229 109.94154358 C17.07575031 126.74215088 13.84918613 143.31771979 9.93896484 159.828125 C9.29258845 162.56938394 8.66732858 165.31440082 8.05078125 168.0625 C7.70097079 169.60426883 7.35074593 171.14594372 7 172.6875 C6.84909912 173.36159912 6.69819824 174.03569824 6.54272461 174.73022461 C5.78013501 178.00270065 4.78220152 180.77423672 3.25 183.75 C2.90921341 185.21862792 2.6208218 186.70002727 2.375 188.1875 C1.40261255 193.48857999 -0.20661834 198.47870265 -1.9453125 203.57421875 C-4.99857424 215.62422746 0.95630785 228.10747307 6.25 238.75 C6.93758957 240.15099771 7.62508238 241.55204291 8.3125 242.953125 C11.19249631 249.78114131 11.19249631 249.78114131 15.25 255.75 C15.32179964 257.26928038 15.33392007 258.79167482 15.3125 260.3125 C15.30347656 261.13878906 15.29445313 261.96507812 15.28515625 262.81640625 C15.27355469 263.45449219 15.26195312 264.09257812 15.25 264.75 C14.610625 264.853125 13.97125 264.95625 13.3125 265.0625 C12.631875 265.289375 11.95125 265.51625 11.25 265.75 C10.92 266.74 10.59 267.73 10.25 268.75 C8.93 268.75 7.61 268.75 6.25 268.75 C6.25 269.41 6.25 270.07 6.25 270.75 C4.93 271.08 3.61 271.41 2.25 271.75 C2.25 272.41 2.25 273.07 2.25 273.75 C1.59 273.75 0.93 273.75 0.25 273.75 C-10.79109589 250.62671233 -10.79109589 250.62671233 -13.75 241.75 C-14.08 252.31 -14.41 262.87 -14.75 273.75 C-18.41032085 274.97010695 -20.15960217 274.41318212 -23.875 273.5 C-24.95007813 273.24734375 -26.02515625 272.9946875 -27.1328125 272.734375 C-28.42832031 272.24710937 -28.42832031 272.24710937 -29.75 271.75 C-30.72673493 268.8197952 -30.92948293 266.74110909 -31.03125 263.67919922 C-31.08635742 262.11490677 -31.08635742 262.11490677 -31.14257812 260.51901245 C-31.17802734 259.37578522 -31.21347656 258.23255798 -31.25 257.0546875 C-31.3109082 255.23772873 -31.3109082 255.23772873 -31.37304688 253.38406372 C-31.45919162 250.7829686 -31.54310165 248.18179869 -31.625 245.58056641 C-31.74448252 241.79959798 -31.87151839 238.01895304 -32 234.23828125 C-33.38448411 192.46823037 -33.91940682 150.70814115 -33.88037109 108.91601562 C-33.8745605 102.63995323 -33.87804757 96.36393257 -33.88394356 90.08787155 C-33.88756212 85.16517828 -33.88640654 80.24249491 -33.88381577 75.31980133 C-33.88315592 73.00277959 -33.88394134 70.68575691 -33.88629532 68.36873627 C-33.90349108 46.79268047 -33.90349108 46.79268047 -32.95797729 37.1572876 C-32.7657274 34.93204096 -32.74604747 32.79271011 -32.8125 30.5625 C-32.75 27.75 -32.75 27.75 -30.75 25.75 C-30.42 26.74 -30.09 27.73 -29.75 28.75 C-29.09 27.1 -28.43 25.45 -27.75 23.75 C-27.09 23.75 -26.43 23.75 -25.75 23.75 C-25.42 24.41 -25.09 25.07 -24.75 25.75 C-23.76 25.42 -22.77 25.09 -21.75 24.75 C-20.76 25.08 -19.77 25.41 -18.75 25.75 C-18.42 28.06 -18.09 30.37 -17.75 32.75 C-17.48445313 31.95335937 -17.21890625 31.15671875 -16.9453125 30.3359375 C-14.546875 23.140625 -12.1484375 15.9453125 -9.75 8.75 C-9.09 8.75 -8.43 8.75 -7.75 8.75 C-7.6675 8.0075 -7.585 7.265 -7.5 6.5 C-6.34385619 2.26080603 -4.64330394 -0.42211854 0 0 Z M-30.75 34.75 C-30.75 40.36 -30.75 45.97 -30.75 51.75 C-30.42 51.75 -30.09 51.75 -29.75 51.75 C-29.75 46.14 -29.75 40.53 -29.75 34.75 C-30.08 34.75 -30.41 34.75 -30.75 34.75 Z M4.25 34.75 C-0.84693362 48.82079015 -3.72802954 63.18240999 -6.375 77.875 C-6.58116943 79.01775391 -6.78733887 80.16050781 -6.99975586 81.33789062 C-9.80341203 97.27039187 -11.38621461 113.15506459 -12.60986328 129.27441406 C-12.87450047 132.74345188 -13.14976095 136.21153903 -13.42578125 139.6796875 C-14.31114987 151.05688806 -15.06787762 162.33466134 -14.75 173.75 C-12.2750975 171.2750975 -12.09965686 169.68767914 -11.34765625 166.2890625 C-11.09693359 165.17660156 -10.84621094 164.06414062 -10.58789062 162.91796875 C-10.33201172 161.74878906 -10.07613281 160.57960938 -9.8125 159.375 C-9.30449143 157.09610733 -8.79538155 154.81745988 -8.28515625 152.5390625 C-8.03137207 151.39727539 -7.77758789 150.25548828 -7.51611328 149.07910156 C-6.81277245 146.02277409 -6.04149131 142.99432987 -5.24609375 139.9609375 C-1.82200002 126.38437226 -0.03461918 112.42445285 1.8125 98.5625 C1.92016693 97.75939392 2.02783386 96.95628784 2.13876343 96.12884521 C6.6860259 65.50406076 6.6860259 65.50406076 5.25 34.75 C4.92 34.75 4.59 34.75 4.25 34.75 Z M-7.75 182.75 C-8.08 183.74 -8.41 184.73 -8.75 185.75 C-9.41 185.75 -10.07 185.75 -10.75 185.75 C-11.73120464 188.80263664 -11.73120464 190.69736336 -10.75 193.75 C-10.09 193.75 -9.43 193.75 -8.75 193.75 C-8.09 190.12 -7.43 186.49 -6.75 182.75 C-7.08 182.75 -7.41 182.75 -7.75 182.75 Z M-15.75 237.75 C-14.75 239.75 -14.75 239.75 -14.75 239.75 Z " fill="#3E73C9" transform="translate(287.75,100.25)"/>
<path d="M0 0 C0 0.66 0 1.32 0 2 C0.99 2.33 1.98 2.66 3 3 C3 3.66 3 4.32 3 5 C4.32 5.33 5.64 5.66 7 6 C7 6.66 7 7.32 7 8 C7.66 8 8.32 8 9 8 C9 8.66 9 9.32 9 10 C9.66 10 10.32 10 11 10 C13.90448886 15.97289793 15.89754163 21.66468154 17.125 28.1875 C17.29040283 29.04335693 17.45580566 29.89921387 17.6262207 30.78100586 C19.46205196 40.78071622 20.35600078 50.86161236 21 61 C21.06405029 61.99290039 21.06405029 61.99290039 21.12939453 63.00585938 C21.91529749 75.46922501 22.16368421 87.8888725 22.125 100.375 C22.1234491 101.2730838 22.12189819 102.1711676 22.12030029 103.09646606 C22.0940308 116.0913509 21.91078396 129.03337931 21 142 C20.91129639 143.41901611 20.91129639 143.41901611 20.82080078 144.86669922 C19.33412517 168.62702882 17.4275113 192.67211377 10.84277344 215.63305664 C8.9050081 222.73347696 8.97756456 228.7337535 10 236 C10.17660156 237.30453125 10.35320312 238.6090625 10.53515625 239.953125 C10.70917969 241.04109375 10.88320313 242.1290625 11.0625 243.25 C12.59286619 253.99815323 12.59286619 253.99815323 12 258 C8.85411416 260.99608175 6.9578476 261.92904833 2.625 262.25 C1.75875 262.1675 0.8925 262.085 0 262 C-0.99 260.02 -1.98 258.04 -3 256 C-3.66 256.99 -4.32 257.98 -5 259 C-5.66 259 -6.32 259 -7 259 C-7.33 259.99 -7.66 260.98 -8 262 C-8.66 262 -9.32 262 -10 262 C-10 262.66 -10 263.32 -10 264 C-11.32 264 -12.64 264 -14 264 C-14 263.34 -14 262.68 -14 262 C-17.63 262 -21.26 262 -25 262 C-25.495 260.515 -25.495 260.515 -26 259 C-26.66 259 -27.32 259 -28 259 C-30.94415442 251.32518969 -32.62381457 244.00840814 -33.5078125 235.8359375 C-33.87903727 232.94274128 -34.37616313 230.27881746 -35.01953125 227.44921875 C-36.38573209 220.82452848 -36.42094428 214.18038589 -36.5625 207.4375 C-36.6230126 204.91528352 -36.68673943 202.3931418 -36.75390625 199.87109375 C-36.77783447 198.76693115 -36.8017627 197.66276855 -36.82641602 196.52514648 C-36.95804658 192.92069046 -36.95804658 192.92069046 -37.50488281 189.05053711 C-38.30531488 182.16787065 -38.16451385 175.23925805 -38.16796875 168.3203125 C-38.17119423 166.78359956 -38.17455919 165.24688691 -38.17805481 163.71017456 C-38.18402448 160.48760268 -38.18589752 157.26505749 -38.18530273 154.04248047 C-38.1852223 150.79632902 -38.19203342 147.55032115 -38.20581055 144.30419922 C-38.27182654 128.47098678 -38.2739552 112.67021908 -37.17578125 96.8671875 C-37.10642868 95.81451691 -37.03707611 94.76184631 -36.96562195 93.67727661 C-36.48441988 87.70172065 -35.42355736 82.20467279 -33.69044495 76.46359253 C-32.56599052 72.45140079 -32.12179429 68.37818194 -31.625 64.25 C-30.57719749 56.31694825 -29.19081305 48.50893092 -27.5 40.6875 C-27.29842285 39.7397168 -27.0968457 38.79193359 -26.88916016 37.81542969 C-25.66987337 32.31737665 -24.04753311 27.24283831 -22 22 C-21.60919203 20.01043215 -21.25149128 18.01193023 -21 16 C-20.34 16 -19.68 16 -19 16 C-18.90332031 15.12988281 -18.80664062 14.25976562 -18.70703125 13.36328125 C-17.93449625 9.6884048 -16.70196355 7.34076093 -14.6875 4.1875 C-13.79611328 2.75470703 -13.79611328 2.75470703 -12.88671875 1.29296875 C-11 -1 -11 -1 -9.00390625 -1.8828125 C-5.79531453 -2.07044944 -3.02132775 -0.98774177 0 0 Z M0 22 C-16.42970407 48.84238933 -18.47592138 83.50871461 -20.25 114.1875 C-20.29110901 114.89598083 -20.33221802 115.60446167 -20.37457275 116.33441162 C-21.11794371 129.51954577 -21.12101514 142.45381474 -20.125 155.625 C-20.00705078 157.34976563 -20.00705078 157.34976563 -19.88671875 159.109375 C-19.44065842 165.13462072 -18.77014393 170.94029322 -17.41015625 176.83105469 C-16.76291481 180.25372908 -16.87137038 183.5270003 -17 187 C-18.32 187.33 -19.64 187.66 -21 188 C-22.45983593 216.68025169 -22.45983593 216.68025169 -16 244 C-12.98973935 243.33357087 -12.98973935 243.33357087 -11.90917969 241.39624023 C-6.46271444 229.87974066 -3.33086457 220.74587145 -6 208 C-6.61308824 206.31288856 -7.26001313 204.63543317 -8 203 C-8.33 203 -8.66 203 -9 203 C-9 196.07 -9 189.14 -9 182 C-8.01 181.67 -7.02 181.34 -6 181 C-6 180.34 -6 179.68 -6 179 C-3.69 179 -1.38 179 1 179 C7.13264058 126.76989809 10.8539357 74.0307886 1 22 C0.67 22 0.34 22 0 22 Z " fill="#4174CA" transform="translate(354,110)"/>
<path d="M0 0 C3.17538332 0.34021964 4.02276865 1.02466604 6.25 3.4375 C8 6 8 6 8 8 C8.66 8 9.32 8 10 8 C13.71737187 12.43919165 13.38855805 16.76466998 13.25 22.25 C13.23831787 23.12809326 13.22663574 24.00618652 13.21459961 24.91088867 C13.02999069 35.64043653 12.63424139 46.38429751 11 57 C11.66 57 12.32 57 13 57 C13.495 75.315 13.495 75.315 14 94 C18.44329688 81.82207523 22.86717115 69.6373294 27.25 57.4375 C27.66169434 56.29829102 28.07338867 55.15908203 28.49755859 53.98535156 C30.88651978 47.31870814 33.0833644 40.62700632 35.09057617 33.83520508 C36.17275047 30.46143592 37.56300561 27.31727903 39.0625 24.11328125 C40.3509376 21.20892815 41.30757819 18.22858886 42.28125 15.20703125 C43.79654034 10.55410167 45.26932253 6.0960162 48 2 C50.32421875 2.1640625 50.32421875 2.1640625 53 3 C54.58203125 5.3984375 54.58203125 5.3984375 55.8125 8.375 C56.23144531 9.35210937 56.65039062 10.32921875 57.08203125 11.3359375 C58 14 58 14 58 17 C58.66 17 59.32 17 60 17 C67.51076089 28.01578264 66.32824451 41.82288837 66.25 54.625 C66.24756287 55.49361664 66.24512573 56.36223328 66.24261475 57.25717163 C66.18505042 74.88815947 65.36643846 92.42477428 64 110 C63.93055176 110.92925293 63.86110352 111.85850586 63.78955078 112.81591797 C61.48362071 142.39401848 56.62508056 173.97496669 45.66015625 201.609375 C43.89406561 206.11588155 42.60762913 210.69867944 41.375 215.375 C37.57544374 229.62295343 31.64637363 242.87095652 25 256 C24.34 256 23.68 256 23 256 C22.773125 256.639375 22.54625 257.27875 22.3125 257.9375 C21 260 21 260 18.375 260.75 C17.59125 260.8325 16.8075 260.915 16 261 C16 260.34 16 259.68 16 259 C15.175 258.9175 14.35 258.835 13.5 258.75 C9.23246079 257.83552731 5.80763106 256.07776822 2 254 C1.91878076 252.39667209 1.86070866 250.79215974 1.8125 249.1875 C1.76029297 247.84751953 1.76029297 247.84751953 1.70703125 246.48046875 C2 244 2 244 3.38671875 242.17578125 C5 241 5 241 7 241 C7.1546875 240.2265625 7.1546875 240.2265625 7.3125 239.4375 C8.24263866 236.13973565 9.61395512 233.13366668 11 230 C11.66 230 12.32 230 13 230 C13.11730469 229.13890625 13.23460937 228.2778125 13.35546875 227.390625 C14.0096495 223.94923781 15.01921174 221.0012386 16.3125 217.75 C16.76238281 216.60402344 17.21226562 215.45804688 17.67578125 214.27734375 C18.44777636 212.3667128 19.231219 210.46048899 20.04296875 208.56640625 C22.95403118 201.71055717 24.83661103 194.64877004 26.7734375 187.47265625 C28.05666573 182.73435106 29.50350715 178.0554778 31.0078125 173.3828125 C33.69467848 164.22208046 35.71146927 154.92275948 37.5625 145.5625 C37.77068359 144.53318359 37.97886719 143.50386719 38.19335938 142.44335938 C40.65147361 130.10655407 42.3422552 117.76776503 43.5625 105.25 C43.69180908 103.94337402 43.82111816 102.63674805 43.9543457 101.29052734 C44.86719332 91.86769722 45.59779567 82.4587364 46 73 C45.34 74.32 44.68 75.64 44 77 C43.34 77 42.68 77 42 77 C41.67 77.66 41.34 78.32 41 79 C40.34 79.99 39.68 80.98 39 82 C38.33846031 84.60282647 37.74316517 87.18748104 37.1875 89.8125 C33.99622469 104.06787374 28.82605531 118.06642151 22 131 C21.34 131 20.68 131 20 131 C19.01 132.98 19.01 132.98 18 135 C14.43770549 135 13.58890321 134.23890991 10.8125 132.125 C10.09707031 131.59132812 9.38164062 131.05765625 8.64453125 130.5078125 C8.10183594 130.01023438 7.55914062 129.51265625 7 129 C7 128.34 7 127.68 7 127 C6.401875 126.773125 5.80375 126.54625 5.1875 126.3125 C2.30765033 124.5845902 1.49690298 123.00909088 0 120 C-0.51847694 117.46514395 -0.88969236 115.10635785 -1.140625 112.546875 C-1.21927795 111.80798035 -1.29793091 111.06908569 -1.37896729 110.30780029 C-2.33177171 100.64435624 -2.56386413 90.95315318 -2.75 81.25 C-2.77157166 80.24072449 -2.79314331 79.23144897 -2.81536865 78.19158936 C-3.16858663 60.64797394 -2.80656401 43.15684036 -2.125 25.625 C-2.07984253 24.44941528 -2.03468506 23.27383057 -1.98815918 22.06262207 C-1.85671959 18.74187716 -1.71626768 15.4216985 -1.5703125 12.1015625 C-1.52852875 11.1049057 -1.486745 10.1082489 -1.44369507 9.08139038 C-1.40056183 8.17361847 -1.35742859 7.26584656 -1.31298828 6.33056641 C-1.2766629 5.53824615 -1.24033752 4.7459259 -1.20291138 3.92959595 C-1 2 -1 2 0 0 Z M47 39 C45.52924754 43.41225737 44.63115642 46.48281619 46 51 C46.66 50.67 47.32 50.34 48 50 C48 46.37 48 42.74 48 39 C47.67 39 47.34 39 47 39 Z M57 43 C58 46 58 46 58 46 Z M44 50 C43.67 51.98 43.34 53.96 43 56 C43.66 56 44.32 56 45 56 C45 54.02 45 52.04 45 50 C44.67 50 44.34 50 44 50 Z " fill="#3F73C9" transform="translate(433,124)"/>
<path d="M0 0 C0.99 0 1.98 0 3 0 C3 0.66 3 1.32 3 2 C5.33214148 3.20628008 7.49642139 4.1654738 10 5 C11.70993434 6.6222454 13.37347684 8.29413425 15 10 C15.763125 10.721875 16.52625 11.44375 17.3125 12.1875 C19 14 19 14 19 16 C19.66 16 20.32 16 21 16 C24.77798065 25.98466314 25.48692834 36.6225562 26.125 47.1875 C26.18753967 48.22170074 26.18753967 48.22170074 26.25134277 49.27679443 C27.92328915 77.91189926 27.59526903 106.73884707 26.125 135.375 C26.08588501 136.14886047 26.04677002 136.92272095 26.00646973 137.72003174 C25.57089425 146.04722317 24.92362263 154.3351265 24.01953125 162.625 C23.90117416 163.7151088 23.90117416 163.7151088 23.78042603 164.82723999 C23.1061485 170.70466549 22.0259797 176.44238896 20.796875 182.23046875 C19.90375618 186.45527099 19.09987498 190.69198921 18.3125 194.9375 C18.18109619 195.64277832 18.04969238 196.34805664 17.91430664 197.07470703 C17.60868631 198.71631307 17.30420946 200.35813193 17 202 C16.34 202 15.68 202 15 202 C15.05220703 202.90878906 15.05220703 202.90878906 15.10546875 203.8359375 C15.31824384 210.42183303 14.2121768 215.81117204 12 222 C11.34 222 10.68 222 10 222 C10.12375 223.093125 10.2475 224.18625 10.375 225.3125 C10.33176959 231.37556496 7.77629679 236.35455554 4 241 C0.81436104 243.01757134 -2.38790399 243.99262037 -6 245 C-7.48368864 245.59297505 -8.96333549 246.19622865 -10.4375 246.8125 C-14 248 -14 248 -17 247 C-20.92224429 242.22213099 -22.26211449 237.39564094 -23.625 231.4375 C-23.82867187 230.63892578 -24.03234375 229.84035156 -24.2421875 229.01757812 C-28.34226871 211.63165685 -28.39408146 193.33095182 -28.6875 175.5625 C-28.70712799 174.49461243 -28.72675598 173.42672485 -28.74697876 172.32647705 C-30.54402606 71.55595641 -30.54402606 71.55595641 -21 37 C-19.35 37 -17.7 37 -16 37 C-16 37.66 -16 38.32 -16 39 C-15.34 39 -14.68 39 -14 39 C-13.85304687 37.88625 -13.70609375 36.7725 -13.5546875 35.625 C-11.99919841 24.75932792 -9.2553638 15.10821045 -5 5 C-4.34 5 -3.68 5 -3 5 C-2.690625 4.360625 -2.38125 3.72125 -2.0625 3.0625 C-1 1 -1 1 0 0 Z M6 42 C3.83783937 52.73397513 1.83161067 63.45760056 0.375 74.3125 C0.25205566 75.22741211 0.12911133 76.14232422 0.00244141 77.08496094 C-0.54780108 81.27220868 -1.05882848 85.45875195 -1.48828125 89.66015625 C-2.15549883 96.02754479 -2.76821872 101.34175738 -6.05078125 106.90625 C-9.70506498 114.96672769 -9.27580447 125.53097126 -9.75390625 134.234375 C-10 137 -10 137 -11 139 C-11.38553955 146.71079107 -10.67816435 154.45861945 -9 162 C-8.34 162.33 -7.68 162.66 -7 163 C-6.40644386 165.64860427 -6.25790731 168.29197322 -6 171 C-6.66 171 -7.32 171 -8 171 C-8.495 171.99 -8.495 171.99 -9 173 C-11.5625 173.625 -11.5625 173.625 -14 174 C-14.09945415 180.11090483 -14.0712828 185.97403427 -13 192 C-12.34 192 -11.68 192 -11 192 C-11.04125 192.78375 -11.0825 193.5675 -11.125 194.375 C-11.28728734 197.16116119 -11.28728734 197.16116119 -9 199 C-8.40234375 201.3203125 -8.40234375 201.3203125 -7.9375 204.125 C-7.69193359 205.59259766 -7.69193359 205.59259766 -7.44140625 207.08984375 C-6.89056561 210.72149223 -6.41319088 214.35014724 -6 218 C0.79815429 211.20184571 1.10233376 194.4461064 2.125 185.5 C2.28097656 184.23414063 2.43695313 182.96828125 2.59765625 181.6640625 C4.95145767 162.01662919 6.35999007 142.33210147 7.125 122.5625 C7.16702545 121.51147095 7.2090509 120.46044189 7.25234985 119.37756348 C7.90818902 102.66815377 8.18846362 85.97184821 8.1875 69.25 C8.18840637 68.21408722 8.18931274 67.17817444 8.19024658 66.11087036 C8.18995403 63.18321446 8.181137 60.25574873 8.16796875 57.328125 C8.16676529 56.4678923 8.16556183 55.60765961 8.1643219 54.72135925 C8.13017202 50.37174754 7.86739183 46.28288236 7 42 C6.67 42 6.34 42 6 42 Z M19 121 C17.25493385 122.74506615 17.76717216 125.19039143 17.68359375 127.56640625 C17.64169922 128.69111328 17.59980469 129.81582031 17.55664062 130.97460938 C17.51732422 132.15861328 17.47800781 133.34261719 17.4375 134.5625 C17.39431641 135.75037109 17.35113281 136.93824219 17.30664062 138.16210938 C17.20016454 141.10794784 17.09815159 144.0538743 17 147 C16.34 147 15.68 147 15 147 C13.13365883 153.38920829 12.6587876 159.30228813 12.5 165.9375 C12.22481648 174.56014758 11.53984146 182.96780798 10.3046875 191.50390625 C10.00468967 194.94618903 10.27793167 197.63831766 11 201 C11.33333333 203 11.66666667 205 12 207 C15.54913975 200.61154845 16.09280514 192.89978486 16 185.6875 C16 182 16 182 17 179 C17.38030321 176.47752012 17.71255722 173.97090342 18 171.4375 C18.08685059 170.67260254 18.17370117 169.90770508 18.26318359 169.11962891 C19.4472396 157.78779087 19.67463308 146.38255174 20 135 C20.66 135 21.32 135 22 135 C22.0270043 133.54176788 22.04639787 132.08339325 22.0625 130.625 C22.07410156 129.81289063 22.08570313 129.00078125 22.09765625 128.1640625 C22.14466334 125.95062858 22.14466334 125.95062858 21 124 C21.66 124 22.32 124 23 124 C23 123.34 23 122.68 23 122 C21.05396726 121.40929986 21.05396726 121.40929986 19 121 Z M-11 198 C-10 201 -10 201 -10 201 Z M11 207 C8.29155119 212.73290915 8.29155119 212.73290915 8 219 C11.53790403 215.30827405 11.59115883 211.90609405 12 207 C11.67 207 11.34 207 11 207 Z " fill="#4073C9" transform="translate(222,127)"/>
<path d="M0 0 C3.290207 1.18578685 6.47840133 2.47840133 9 5 C9.07205511 6.68608966 9.08386068 8.37500659 9.0625 10.0625 C9.05347656 10.98160156 9.04445313 11.90070313 9.03515625 12.84765625 C9.02355469 13.55792969 9.01195312 14.26820312 9 15 C8.01 15.495 8.01 15.495 7 16 C6.59270772 18.32156597 6.25561323 20.6568787 6 23 C-0.23352019 25.3548854 -5.45688671 24.87557031 -12 24 C-12.33 24.66 -12.66 25.32 -13 26 C-13.99 26.33 -14.98 26.66 -16 27 C-16 27.66 -16 28.32 -16 29 C-18.31 29.66 -20.62 30.32 -23 31 C-22.99777939 31.93403656 -22.99555878 32.86807312 -22.99327087 33.83041382 C-22.97254962 42.85303994 -22.95780131 51.87566095 -22.94818783 60.89830589 C-22.94307864 65.53133548 -22.93621449 70.16434516 -22.92456055 74.79736328 C-22.87479269 95.13811247 -22.99694527 115.45330626 -23.55893517 135.78681755 C-23.94972768 150.13828893 -24.09030703 164.48237526 -24.13023186 178.83895111 C-24.140574 182.38485832 -24.15447121 185.93073361 -24.16957092 189.47662354 C-24.17947051 191.84444166 -24.18935308 194.21225986 -24.19921875 196.58007812 C-24.20413047 197.75562634 -24.20904219 198.93117455 -24.21410275 200.14234543 C-24.23775167 206.21676717 -24.25198147 212.29100788 -24.25048828 218.36547852 C-24.24970489 224.36630751 -24.27282736 230.36661802 -24.3123703 236.36731148 C-24.32281667 238.62837968 -24.32436444 240.88950767 -24.31671906 243.15058708 C-24.30717513 246.26887065 -24.32810126 249.3855265 -24.35644531 252.50366211 C-24.34624863 253.42742142 -24.33605194 254.35118073 -24.32554626 255.30293274 C-24.36395355 257.64400303 -24.43237433 259.72869555 -25 262 C-29.02157939 265.44397304 -32.87655768 265.66403657 -38 266 C-40 265 -40 265 -40.6262207 263.19482422 C-42.49459698 253.54669769 -42.26058921 243.9084356 -42.1875 234.125 C-42.1799363 232.21451947 -42.17269821 230.30403763 -42.16577148 228.39355469 C-42.07707192 210.25435075 -41.64209029 192.12738636 -41 174 C-40.9572998 172.79230957 -40.91459961 171.58461914 -40.87060547 170.34033203 C-40.7542497 167.16404767 -40.63043385 163.98823493 -40.5 160.8125 C-40.46463135 159.94077148 -40.4292627 159.06904297 -40.39282227 158.17089844 C-40.20786103 154.0863716 -39.9169649 150.04184564 -39.4765625 145.9765625 C-38.9707403 141.15949927 -38.85040775 136.40307471 -38.875 131.5625 C-38.87113281 130.77423828 -38.86726563 129.98597656 -38.86328125 129.17382812 C-38.86891676 125.86296778 -38.94599118 123.16202645 -40 120 C-40.09522406 118.00047448 -40.13073086 115.99788435 -40.1328125 113.99609375 C-40.13474609 112.79065918 -40.13667969 111.58522461 -40.13867188 110.34326172 C-40.13416016 109.05436035 -40.12964844 107.76545898 -40.125 106.4375 C-40.12411377 105.77574768 -40.12322754 105.11399536 -40.12231445 104.43218994 C-40.10968986 96.40659085 -39.94199782 88.43592363 -39.3581543 80.42993164 C-38.4561682 66.33457048 -38.9234669 52.11741408 -39 38 C-42.96 38 -46.92 38 -51 38 C-51.64783124 35.12543719 -52.29332518 32.25038241 -52.9375 29.375 C-53.11990234 28.56675781 -53.30230469 27.75851563 -53.49023438 26.92578125 C-54.92246877 20.51978743 -56.1506433 14.34066097 -56.25 7.75 C-56.27578125 6.71359375 -56.3015625 5.6771875 -56.328125 4.609375 C-56.21984375 3.74828125 -56.1115625 2.8871875 -56 2 C-52.98236093 -0.01175938 -52.24904567 -0.26119094 -48.83984375 -0.37890625 C-48.04642578 -0.41306641 -47.25300781 -0.44722656 -46.43554688 -0.48242188 C-45.61119141 -0.50884766 -44.78683594 -0.53527344 -43.9375 -0.5625 C-42.3006327 -0.62236985 -40.66389711 -0.68599395 -39.02734375 -0.75390625 C-37.94054321 -0.78979858 -37.94054321 -0.78979858 -36.83178711 -0.82641602 C-24.44582636 -2.00013561 -12.59509656 -2.55001396 0 0 Z M4 15 C5 17 5 17 5 17 Z " fill="#4073CA" transform="translate(202,109)"/>
<path d="M0 0 C0.66 0 1.32 0 2 0 C1.98839844 1.07121094 1.97679687 2.14242187 1.96484375 3.24609375 C1.95546701 4.64322743 1.94636669 6.04036299 1.9375 7.4375 C1.92912109 8.14455078 1.92074219 8.85160156 1.91210938 9.58007812 C1.90346412 11.38693559 1.94779989 13.19387603 2 15 C2.33 15.33 2.66 15.66 3 16 C3.29179626 18.96512163 3.5157553 21.90267181 3.6875 24.875 C3.74744141 25.70386719 3.80738281 26.53273437 3.86914062 27.38671875 C3.9397168 28.58361328 3.9397168 28.58361328 4.01171875 29.8046875 C4.05772217 30.53671387 4.10372559 31.26874023 4.15112305 32.02294922 C4 34 4 34 2 37 C2.99 37 3.98 37 5 37 C4.95875 35.824375 4.9175 34.64875 4.875 33.4375 C4.875 28.45017592 5.35424463 23.64575537 9 20 C9.39764263 18.01178687 9.73775349 16.01055661 10 14 C11.65 14 13.3 14 15 14 C15.02487921 18.83804966 15.04294428 23.67606135 15.05493164 28.51416016 C15.05993363 30.15707041 15.06673733 31.79997627 15.07543945 33.44287109 C15.0876874 35.81609181 15.09326979 38.18925323 15.09765625 40.5625 C15.10281754 41.28679199 15.10797882 42.01108398 15.11329651 42.75732422 C15.11340981 43.80750732 15.11340981 43.80750732 15.11352539 44.87890625 C15.115746 45.4829126 15.11796661 46.08691895 15.12025452 46.70922852 C14.97572517 49.46241992 14.59187098 52.17082463 14.23746586 54.90341949 C13.87658448 58.08963272 13.78781652 61.26536028 13.70288086 64.46972656 C13.68323336 65.17643305 13.66358585 65.88313953 13.64334297 66.61126137 C13.57958404 68.95429199 13.52191157 71.29742246 13.46484375 73.640625 C13.42144273 75.32927711 13.37793718 77.01792655 13.33433533 78.70657349 C13.21848101 83.27123256 13.1098232 87.83603501 13.00380707 92.40093231 C12.9374886 95.25048971 12.86957751 98.10000628 12.80157471 100.94952393 C11.81052039 142.9664329 11.78331867 184.97413949 12 227 C16.84159268 225.04727635 16.84159268 225.04727635 21.25 222.3125 C23 221 23 221 26 221 C26.268125 220.4225 26.53625 219.845 26.8125 219.25 C29.91472868 213.37209302 29.91472868 213.37209302 33.1875 212.25 C37.92183316 211.82917039 42.432497 211.477499 47 213 C49.35101162 216.52651743 49.40818735 217.84669374 49 222 C47.6875 224.9921875 47.6875 224.9921875 46 227.875 C45.443125 228.84179688 44.88625 229.80859375 44.3125 230.8046875 C43.879375 231.52914062 43.44625 232.25359375 43 233 C42.34 233 41.68 233 41 233 C40.773125 233.7425 40.54625 234.485 40.3125 235.25 C37.78404287 240.54771969 32.75128251 242.85894673 27.625 245.3125 C26.00464844 246.11107422 26.00464844 246.11107422 24.3515625 246.92578125 C19.76383266 248.39620748 16.24250864 247.92503482 11.8125 246.09765625 C11.214375 245.75605469 10.61625 245.41445313 10 245.0625 C7.29558469 243.60264086 5.21959252 242.78250939 2.1875 241.9375 C-0.95263615 241.01393054 -2.15586035 240.6206195 -4 238 C-8.44865448 229.10269105 -8.39094441 219.14593098 -8.625 209.4375 C-8.66367187 208.18130859 -8.70234375 206.92511719 -8.7421875 205.63085938 C-9.21140193 189.23349079 -8.95894878 172.85907231 -8.62768555 156.4621582 C-8.56227122 153.17600707 -8.50275412 149.88978039 -8.44335938 146.60351562 C-8.40140239 144.47915951 -8.35909686 142.35481025 -8.31640625 140.23046875 C-8.29133751 138.78319649 -8.29133751 138.78319649 -8.26576233 137.3066864 C-8.14448709 131.66075918 -7.77908101 126.087546 -7.22935486 120.467453 C-6.94782955 117.43873811 -6.81027501 114.41894852 -6.71875 111.37890625 C-6.68136719 110.25935547 -6.64398438 109.13980469 -6.60546875 107.98632812 C-6.53431474 105.67645806 -6.4640219 103.36656133 -6.39453125 101.05664062 C-6.35714844 99.94611328 -6.31976563 98.83558594 -6.28125 97.69140625 C-6.25095703 96.69310791 -6.22066406 95.69480957 -6.18945312 94.66625977 C-6 92 -6 92 -5.51048279 90.08627319 C-5.00170755 88.00697852 -4.78278998 86.08709043 -4.64282227 83.95336914 C-4.58929092 83.16897964 -4.53575958 82.38459015 -4.48060608 81.57643127 C-4.39932716 80.31850014 -4.39932716 80.31850014 -4.31640625 79.03515625 C-4.19231927 77.24802867 -4.06796197 75.46091983 -3.94335938 73.67382812 C-3.75146519 70.86519499 -3.56210275 68.0564489 -3.37768555 65.24731445 C-3.19781603 62.53021275 -3.00778559 59.81396817 -2.81640625 57.09765625 C-2.76424454 56.26105972 -2.71208282 55.4244632 -2.65834045 54.56251526 C-2.35137525 50.29764322 -1.77906913 46.94319577 0 43 C-0.29066773 41.65672 -0.6304148 40.32374305 -1 39 C-0.91515063 36.58042447 -0.76355832 34.16269988 -0.5625 31.75 C-0.46066406 30.48671875 -0.35882813 29.2234375 -0.25390625 27.921875 C-0.17011719 26.95765625 -0.08632813 25.9934375 0 25 C-0.66 25 -1.32 25 -2 25 C-2.05455124 22.33305052 -2.09393392 19.66724502 -2.125 17 C-2.14175781 16.25621094 -2.15851563 15.51242188 -2.17578125 14.74609375 C-2.22144715 9.49451557 -1.45712451 5.0483054 0 0 Z M0 20 C1 22 1 22 1 22 Z " fill="#3E71C8" transform="translate(388,127)"/>
<path d="M0 0 C12.87 0 25.74 0 39 0 C39.90418999 3.61675995 40.12663375 6.30253294 40.12939453 9.99023438 C40.13254669 11.19828735 40.13569885 12.40634033 40.13894653 13.65100098 C40.1369223 14.95210815 40.13489807 16.25321533 40.1328125 17.59375 C40.13348646 18.94608579 40.13445725 20.29842146 40.13571167 21.65075684 C40.13718431 24.48186397 40.13504803 27.31293951 40.13037109 30.14404297 C40.12467406 33.76888291 40.12795538 37.3936488 40.13394356 41.01848602 C40.13756088 43.8100439 40.13640519 46.60158429 40.13381577 49.3931427 C40.13282637 51.37842863 40.13585788 53.36371525 40.13894653 55.34899902 C40.13421829 57.16107849 40.13421829 57.16107849 40.12939453 59.00976562 C40.12859894 60.07247681 40.12780334 61.13518799 40.12698364 62.23010254 C40 65 40 65 39 69 C48.57 69 58.14 69 68 69 C68 46.23 68 23.46 68 0 C81.2 0 94.4 0 108 0 C108 22.44 108 44.88 108 68 C107.67 68 107.34 68 107 68 C106.9845388 66.84155075 106.9845388 66.84155075 106.96876526 65.65969849 C106.87089006 58.3904686 106.76839 51.12132579 106.66066074 43.85223579 C106.60543681 40.11489964 106.55201768 36.37755565 106.50268555 32.64013672 C106.45503413 29.03503385 106.40269108 25.43002715 106.34705925 21.82503891 C106.32663921 20.44791933 106.30792553 19.07077338 106.29092598 17.69360733 C106.26687453 15.768496 106.23625749 13.84347005 106.20532227 11.91845703 C106.18977798 10.82147491 106.1742337 9.7244928 106.15821838 8.5942688 C106.17103805 6.01546248 106.17103805 6.01546248 105 4 C93.78 4.33 82.56 4.66 71 5 C70.9790357 13.02466713 70.95899949 21.04923519 70.94824982 29.07390594 C70.94296729 32.81075715 70.93590691 36.5475857 70.92456055 40.28442383 C70.91370233 43.88297945 70.90771692 47.4815131 70.90512276 51.08008385 C70.90327381 52.45361362 70.89966334 53.82714218 70.89426994 55.20066261 C70.88702072 57.12310236 70.88659161 59.04556417 70.88647461 60.96801758 C70.884254 62.06277908 70.88203339 63.15754059 70.87974548 64.28547668 C70.88011723 67.09690509 70.88011723 67.09690509 72 70 C71 71 71 71 68.07250977 71.06591797 C66.79174561 71.04158691 65.51098145 71.01725586 64.19140625 70.9921875 C62.79102288 70.97467043 61.39063179 70.95776222 59.99023438 70.94140625 C57.77346693 70.91041627 55.55708029 70.87488685 53.34057617 70.82861328 C51.20747046 70.78636416 49.07481529 70.76285851 46.94140625 70.7421875 C45.01856812 70.70907471 45.01856812 70.70907471 43.05688477 70.67529297 C42.04811279 70.78244629 41.03934082 70.88959961 40 71 C39.34 71.99 38.68 72.98 38 74 C35.09165115 74.26660183 32.39861732 74.34779124 29.4921875 74.29296875 C28.65156769 74.28872391 27.81094788 74.28447906 26.94485474 74.28010559 C24.25458007 74.26328532 21.56504901 74.22562781 18.875 74.1875 C17.05339622 74.17245745 15.23178072 74.1587683 13.41015625 74.14648438 C8.93981676 74.11337094 4.47003454 74.06156637 0 74 C-1.27791158 71.44417684 -1.12703027 69.64005447 -1.12939453 66.77856445 C-1.13254669 65.68594803 -1.13569885 64.5933316 -1.13894653 63.46760559 C-1.1369223 62.27817856 -1.13489807 61.08875153 -1.1328125 59.86328125 C-1.13376923 58.63651169 -1.13472595 57.40974213 -1.13571167 56.14579773 C-1.13656875 52.86850236 -1.13253692 49.59125396 -1.12695312 46.31396484 C-1.12375509 43.0367774 -1.13137429 39.75960485 -1.13671875 36.48242188 C-1.13605682 33.94270809 -1.13477328 31.40299437 -1.1328125 28.86328125 C-1.13483673 27.70016922 -1.13686096 26.53705719 -1.13894653 25.33869934 C-1.1152435 16.8145055 -0.57006531 8.55097965 0 0 Z " fill="#4174CB" transform="translate(14,44)"/>
<path d="M0 0 C13.2 0 26.4 0 40 0 C40 22.44 40 44.88 40 68 C39.67 68 39.34 68 39 68 C38.9845388 66.84155075 38.9845388 66.84155075 38.96876526 65.65969849 C38.87089006 58.3904686 38.76839 51.12132579 38.66066074 43.85223579 C38.60543681 40.11489964 38.55201768 36.37755565 38.50268555 32.64013672 C38.45503413 29.03503385 38.40269108 25.43002715 38.34705925 21.82503891 C38.32663921 20.44791933 38.30792553 19.07077338 38.29092598 17.69360733 C38.26687453 15.768496 38.23625749 13.84347005 38.20532227 11.91845703 C38.18977798 10.82147491 38.1742337 9.7244928 38.15821838 8.5942688 C38.17103805 6.01546248 38.17103805 6.01546248 37 4 C25.78 4.33 14.56 4.66 3 5 C2.9790357 13.02466713 2.95899949 21.04923519 2.94824982 29.07390594 C2.94296729 32.81075715 2.93590691 36.5475857 2.92456055 40.28442383 C2.91370233 43.88297945 2.90771692 47.4815131 2.90512276 51.08008385 C2.90327381 52.45361362 2.89966334 53.82714218 2.89426994 55.20066261 C2.88702072 57.12310236 2.88659161 59.04556417 2.88647461 60.96801758 C2.88314369 62.61015984 2.88314369 62.61015984 2.87974548 64.28547668 C2.88011723 67.09690509 2.88011723 67.09690509 4 70 C3 71 3 71 0.04077148 71.11352539 C-1.25272217 71.10828857 -2.54621582 71.10305176 -3.87890625 71.09765625 C-4.90889992 71.09553383 -4.90889992 71.09553383 -5.95970154 71.09336853 C-8.16067801 71.08775479 -10.36155409 71.07520007 -12.5625 71.0625 C-14.05143083 71.05748676 -15.54036324 71.05292355 -17.02929688 71.04882812 C-20.68623075 71.03778093 -24.34310558 71.02050713 -28 71 C-28 70.34 -28 69.68 -28 69 C-18.76 69 -9.52 69 0 69 C0 46.23 0 23.46 0 0 Z " fill="#5A81C3" transform="translate(82,44)"/>
<path d="M0 0 C2.52259061 1.97420135 2.9929808 2.96745642 3.6875 6.1875 C3.790625 7.115625 3.89375 8.04375 4 9 C4.66 8.67 5.32 8.34 6 8 C6.41640288 15.2484945 5.44166784 21.16914355 3 28 C2.34 28 1.68 28 1 28 C1.12375 29.093125 1.2475 30.18625 1.375 31.3125 C1.39611143 37.20259002 -1.47671728 42.40195443 -5 47 C-7.203125 47.81640625 -7.203125 47.81640625 -9 48 C-9.33 46.02 -9.66 44.04 -10 42 C-9.34 42.33 -8.68 42.66 -8 43 C-7.01 42.505 -7.01 42.505 -6 42 C-6.4640625 40.453125 -6.4640625 40.453125 -6.9375 38.875 C-7.87502812 35.61027443 -8.50772702 32.36386538 -9 29 C-9.66 29.33 -10.32 29.66 -11 30 C-11.65555119 32.52733235 -11.65555119 32.52733235 -12 35 C-12.495 33.515 -12.495 33.515 -13 32 C-13.66 32 -14.32 32 -15 32 C-15 30.02 -15 28.04 -15 26 C-14.34 26 -13.68 26 -13 26 C-12.34 24.35 -11.68 22.7 -11 21 C-10.34 21 -9.68 21 -9 21 C-9 22.32 -9 23.64 -9 25 C-8.34 25 -7.68 25 -7 25 C-6.67 23.02 -6.34 21.04 -6 19 C-5.01 19 -4.02 19 -3 19 C-3.061875 17.453125 -3.061875 17.453125 -3.125 15.875 C-3.00240479 12.07454862 -2.28045419 9.54007924 -1 6 C-0.63079809 4.00630969 -0.28674418 2.00720923 0 0 Z M2 13 C-0.70844881 18.73290915 -0.70844881 18.73290915 -1 25 C2.53790403 21.30827405 2.59115883 17.90609405 3 13 C2.67 13 2.34 13 2 13 Z " fill="#3D70C6" transform="translate(231,321)"/>
<path d="M0 0 C2.68092691 2.68092691 2.38670257 4.39167363 2.625 8.125 C2.69976562 9.22070312 2.77453125 10.31640625 2.8515625 11.4453125 C2.92503906 12.70988281 2.92503906 12.70988281 3 14 C3.66 12.02 4.32 10.04 5 8 C5.33 8 5.66 8 6 8 C5.7613761 10.86348684 5.52178688 13.72684544 5.27734375 16.58984375 C5.10527085 18.70561332 4.94864492 20.82277393 4.81640625 22.94140625 C4.31644593 30.44081103 2.97612579 37.61663639 1.42041016 44.96337891 C0.6672851 48.61179309 -0.00780239 52.27482143 -0.6875 55.9375 C-0.81882324 56.64229492 -0.95014648 57.34708984 -1.08544922 58.07324219 C-1.39113693 59.71533912 -1.69570037 61.35764528 -2 63 C-2.99 62.67 -3.98 62.34 -5 62 C-4.9278125 61.29875 -4.855625 60.5975 -4.78125 59.875 C-4.34393139 55.40463196 -3.93291348 50.99479664 -4 46.5 C-4 43 -4 43 -3 40 C-2.62318524 37.39467917 -2.29057168 34.80264513 -2 32.1875 C-1.86972412 31.02468506 -1.86972412 31.02468506 -1.73681641 29.83837891 C-0.69398919 19.92075943 -0.34507244 9.96221343 0 0 Z " fill="#668BCA" transform="translate(241,266)"/>
<path d="M0 0 C2.33523916 3.50285874 2.18495942 4.65629938 1.9765625 8.76171875 C1.925 9.87998047 1.8734375 10.99824219 1.8203125 12.15039062 C1.75585938 13.31763672 1.69140625 14.48488281 1.625 15.6875 C1.56828125 16.86634766 1.5115625 18.04519531 1.453125 19.25976562 C1.31155328 22.17378352 1.16013058 25.08695257 1 28 C1.66 28 2.32 28 3 28 C2.67 29.98 2.34 31.96 2 34 C1.34 32.68 0.68 31.36 0 30 C0 63.99 0 97.98 0 133 C-0.66 133.33 -1.32 133.66 -2 134 C-2.02344861 119.62153684 -2.04097092 105.24307669 -2.05181217 90.86459827 C-2.05694986 84.18715029 -2.06407089 77.50971601 -2.07543945 70.83227539 C-2.08635383 64.38077862 -2.09229488 57.92929422 -2.09487724 51.47778893 C-2.09671614 49.024002 -2.10030689 46.57021571 -2.10573006 44.1164341 C-2.15516716 20.80798209 -2.15516716 20.80798209 -1.21531677 11.34672546 C-1.01364952 9.14876539 -0.9650464 7.01782491 -1 4.8125 C-1 2 -1 2 0 0 Z " fill="#456FB8" transform="translate(256,126)"/>
<path d="M0 0 C0.66 0 1.32 0 2 0 C1.98839844 1.07121094 1.97679687 2.14242187 1.96484375 3.24609375 C1.95546701 4.64322743 1.94636669 6.04036299 1.9375 7.4375 C1.92912109 8.14455078 1.92074219 8.85160156 1.91210938 9.58007812 C1.90346412 11.38693559 1.94779989 13.19387603 2 15 C2.33 15.33 2.66 15.66 3 16 C3.29179626 18.96512163 3.5157553 21.90267181 3.6875 24.875 C3.74744141 25.70386719 3.80738281 26.53273437 3.86914062 27.38671875 C3.91619141 28.18464844 3.96324219 28.98257813 4.01171875 29.8046875 C4.05772217 30.53671387 4.10372559 31.26874023 4.15112305 32.02294922 C4 34 4 34 2 37 C2.99 37 3.98 37 5 37 C5 34.36 5 31.72 5 29 C5.33 29 5.66 29 6 29 C6.0810206 31.10353495 6.13919907 33.20795952 6.1875 35.3125 C6.22230469 36.48425781 6.25710938 37.65601563 6.29296875 38.86328125 C6 42 6 42 4.48828125 43.91796875 C3.75158203 44.45357422 3.75158203 44.45357422 3 45 C2.01 44.67 1.02 44.34 0 44 C-1.09587955 39.75448144 -0.92865836 36.0407161 -0.5625 31.6875 C-0.46066406 30.43324219 -0.35882813 29.17898437 -0.25390625 27.88671875 C-0.17011719 26.93410156 -0.08632813 25.98148438 0 25 C-0.66 25 -1.32 25 -2 25 C-2.05455124 22.33305052 -2.09393392 19.66724502 -2.125 17 C-2.14175781 16.25621094 -2.15851563 15.51242188 -2.17578125 14.74609375 C-2.22144715 9.49451557 -1.45712451 5.0483054 0 0 Z M0 20 C1 22 1 22 1 22 Z " fill="#708ED1" transform="translate(388,127)"/>
<path d="M0 0 C1.12233032 -0.0009668 1.12233032 -0.0009668 2.26733398 -0.00195312 C10.06056753 0.06989649 17.6788249 1.0273767 25.375 2.1875 C25.045 2.8475 24.715 3.5075 24.375 4.1875 C17.90664911 5.23138023 11.62286768 5.26394186 5.08984375 5.06640625 C3.67730064 5.03098976 3.67730064 5.03098976 2.23622131 4.99485779 C-0.7385352 4.9189687 -3.71298059 4.83462805 -6.6875 4.75 C-8.7180843 4.69670425 -10.74868328 4.64396453 -12.77929688 4.59179688 C-17.7280574 4.46345623 -22.67655733 4.32754128 -27.625 4.1875 C-27.625 4.8475 -27.625 5.5075 -27.625 6.1875 C-28.615 6.5175 -29.605 6.8475 -30.625 7.1875 C-30.25 5.25 -30.25 5.25 -29.625 3.1875 C-27.39663736 2.07331868 -26.03572093 2.00875563 -23.5625 1.90625 C-22.76585937 1.86886719 -21.96921875 1.83148438 -21.1484375 1.79296875 C-18.625 1.6875 -18.625 1.6875 -16.1015625 1.58203125 C-15.30492187 1.54464844 -14.50828125 1.50726563 -13.6875 1.46875 C-12.95660156 1.43845703 -12.22570312 1.40816406 -11.47265625 1.37695312 C-7.58324021 0.97814408 -4.10695331 -0.00362205 0 0 Z " fill="#739AD2" transform="translate(176.625,106.8125)"/>
<path d="M0 0 C0.33 0 0.66 0 1 0 C1 27.72 1 55.44 1 84 C-0.98 84.495 -0.98 84.495 -3 85 C-3 84.34 -3 83.68 -3 83 C-2.34 83 -1.68 83 -1 83 C-1.00222061 82.2993895 -1.00444122 81.59877899 -1.00672913 80.87693787 C-1.02706306 74.15882946 -1.0421384 67.44072586 -1.05181217 60.72259426 C-1.05695324 57.27167346 -1.06388334 53.8207788 -1.07543945 50.36987305 C-1.13030727 33.55173207 -0.92640994 16.79548851 0 0 Z " fill="#668ACA" transform="translate(176,287)"/>
<path d="M0 0 C0.33 0 0.66 0 1 0 C1.97278617 6.96803129 1.96638046 13.54797842 1.5625 20.5625 C1.51029297 21.57119141 1.45808594 22.57988281 1.40429688 23.61914062 C1.27601349 26.07984916 1.14112915 28.54000054 1 31 C1.99 29.68 2.98 28.36 4 27 C4.33 29.31 4.66 31.62 5 34 C5.66 34 6.32 34 7 34 C6.67 37.3 6.34 40.6 6 44 C5.34 44 4.68 44 4 44 C3.34 43.01 2.68 42.02 2 41 C1.34 40.67 0.68 40.34 0 40 C0 40.99 0 41.98 0 43 C-0.66 43 -1.32 43 -2 43 C-4.96473868 34.10578397 -2.47331614 23.53113956 -1.5 14.375 C-1.355003 12.97530859 -1.21046844 11.57556919 -1.06640625 10.17578125 C-0.71546571 6.783356 -0.35988674 3.39148585 0 0 Z " fill="#4F80CD" transform="translate(227,273)"/>
<path d="M0 0 C0.7425 0.2475 1.485 0.495 2.25 0.75 C2.25 1.41 2.25 2.07 2.25 2.75 C3.24 3.08 4.23 3.41 5.25 3.75 C6.81618444 5.44102522 8.30780525 7.20206388 9.75 9 C10.5234375 9.95390625 11.296875 10.9078125 12.09375 11.890625 C15.40555802 16.28237042 17.88086503 20.38755472 19.25 25.75 C18.875 28.125 18.875 28.125 18.25 29.75 C17.981875 28.615625 17.71375 27.48125 17.4375 26.3125 C17.045625 25.136875 16.65375 23.96125 16.25 22.75 C15.26 22.42 14.27 22.09 13.25 21.75 C13.25 20.76 13.25 19.77 13.25 18.75 C11.6 18.75 9.95 18.75 8.25 18.75 C8.12625 16.89375 8.12625 16.89375 8 15 C7.61654472 11.90496813 7.33914014 10.86588219 5.375 8.3125 C3.24242873 6.57679752 3.24242873 6.57679752 0.25 5.75 C0.25 4.76 0.25 3.77 0.25 2.75 C-1.07 2.75 -2.39 2.75 -3.75 2.75 C-3.75 3.41 -3.75 4.07 -3.75 4.75 C-4.41 4.75 -5.07 4.75 -5.75 4.75 C-5.853125 5.801875 -5.95625 6.85375 -6.0625 7.9375 C-6.72949332 11.63628113 -7.49990008 13.77986811 -9.75 16.75 C-10.41 16.75 -11.07 16.75 -11.75 16.75 C-11.09 14.11 -10.43 11.47 -9.75 8.75 C-9.09 8.75 -8.43 8.75 -7.75 8.75 C-7.6675 8.0075 -7.585 7.265 -7.5 6.5 C-6.34385619 2.26080603 -4.64330394 -0.42211854 0 0 Z " fill="#628ACA" transform="translate(287.75,100.25)"/>
<path d="M0 0 C0.99 0 1.98 0 3 0 C2.625 1.9375 2.625 1.9375 2 4 C1.01 4.495 1.01 4.495 0 5 C-0.91485573 7.80478195 -0.91485573 7.80478195 -1.625 11.0625 C-2.01558594 12.71958984 -2.01558594 12.71958984 -2.4140625 14.41015625 C-2.60742188 15.26480469 -2.80078125 16.11945313 -3 17 C-2.34 17 -1.68 17 -1 17 C-0.34 15.02 0.32 13.04 1 11 C2.31600401 13.63200802 2.63637344 16.09098753 3 19 C2.67 19.66 2.34 20.32 2 21 C1.34 21 0.68 21 0 21 C-0.33 21.66 -0.66 22.32 -1 23 C-1.66 23.99 -2.32 24.98 -3 26 C-3.59739945 28.04705225 -4.13409983 30.11233108 -4.625 32.1875 C-4.88539063 33.27417969 -5.14578125 34.36085937 -5.4140625 35.48046875 C-5.60742188 36.31191406 -5.80078125 37.14335937 -6 38 C-6.33 38 -6.66 38 -7 38 C-7.0272415 36.58344207 -7.04650467 35.16672955 -7.0625 33.75 C-7.07410156 32.96109375 -7.08570313 32.1721875 -7.09765625 31.359375 C-7.00385306 29.09308998 -6.63241063 27.1711105 -6 25 C-6.66 24.67 -7.32 24.34 -8 24 C-7.34 20.37 -6.68 16.74 -6 13 C-5.34 13 -4.68 13 -4 13 C-3.896875 11.783125 -3.79375 10.56625 -3.6875 9.3125 C-3.21917793 5.59890387 -2.41028567 2.96650544 0 0 Z " fill="#4F7DCA" transform="translate(475,180)"/>
<path d="M0 0 C2.97 0.495 2.97 0.495 6 1 C3 3 3 3 1 3 C1.00444122 4.02064041 1.00888245 5.04128082 1.01345825 6.09284973 C1.05396464 15.7015438 1.0839653 25.31022059 1.10362434 34.9189806 C1.11407093 39.85919052 1.1282461 44.79933164 1.15087891 49.73950195 C1.17257607 54.50515611 1.18456203 59.27074398 1.18975449 64.03644371 C1.19345587 65.85655448 1.20068355 67.67666153 1.21146011 69.49674416 C1.22593351 72.04193649 1.22797969 74.58685336 1.22705078 77.13208008 C1.23424133 77.88805481 1.24143188 78.64402954 1.24884033 79.4229126 C1.23399918 83.16965187 1.13382972 84.79925542 -1 88 C-1.0739213 68.74804937 -0.88784731 49.51263404 -0.53643799 30.26367188 C-0.47429489 26.82945888 -0.41503087 23.39519606 -0.35546875 19.9609375 C-0.239522 13.30724484 -0.12089335 6.65360453 0 0 Z " fill="#5A83C8" transform="translate(178,137)"/>
<path d="M0 0 C0.33 0 0.66 0 1 0 C1.33 27.39 1.66 54.78 2 83 C4.97 82.01 4.97 82.01 8 81 C7.1875 83.4375 7.1875 83.4375 6 86 C4.515 86.495 4.515 86.495 3 87 C1.52128601 86.0032196 1.52128601 86.0032196 0 84 C-0.28053738 81.23965596 -0.37899239 78.7076749 -0.34057617 75.94848633 C-0.34101425 75.12874832 -0.34145233 74.30901031 -0.34190369 73.46443176 C-0.33981271 70.75338977 -0.31646736 68.04296528 -0.29296875 65.33203125 C-0.28737389 63.45302163 -0.28310327 61.57400763 -0.28010559 59.69499207 C-0.26864817 54.74813771 -0.23917326 49.80154737 -0.20599365 44.85479736 C-0.17531211 39.80753145 -0.16160435 34.7602229 -0.14648438 29.71289062 C-0.11430444 19.80847772 -0.06309722 9.90426081 0 0 Z " fill="#5079C6" transform="translate(398,271)"/>
<path d="M0 0 C0.33 0 0.66 0 1 0 C1.05003872 3.94690003 1.08601633 7.89367309 1.10986328 11.84082031 C1.12467591 13.83144637 1.15010992 15.82198437 1.17578125 17.8125 C1.2127479 25.13189641 0.85646642 31.90273095 -1 39 C-2.86360311 35.52956931 -3.33233309 32.88951481 -3.5625 28.9375 C-3.76051635 25.66820969 -3.96130434 23.11608697 -5 20 C-4.505 18.515 -4.505 18.515 -4 17 C-3.34 17 -2.68 17 -2 17 C-2.33 13.37 -2.66 9.74 -3 6 C-2.34 6 -1.68 6 -1 6 C-0.67 4.02 -0.34 2.04 0 0 Z " fill="#4671C0" transform="translate(246,245)"/>
<path d="M0 0 C0.66 0 1.32 0 2 0 C2.16751968 3.12495489 2.33387058 6.24997092 2.5 9.375 C2.54769531 10.26445312 2.59539062 11.15390625 2.64453125 12.0703125 C2.71220703 13.34648437 2.71220703 13.34648437 2.78125 14.6484375 C2.82314453 15.43395996 2.86503906 16.21948242 2.90820312 17.02880859 C2.96979795 18.35145924 3 19.67591592 3 21 C3.16113281 21.56589844 3.32226562 22.13179688 3.48828125 22.71484375 C4.15547654 25.69430361 4.17014286 28.51111414 4.1875 31.5625 C4.20167969 32.69816406 4.21585937 33.83382812 4.23046875 35.00390625 C4 38 4 38 2 41 C1.01 41 0.02 41 -1 41 C-1.33 41.66 -1.66 42.32 -2 43 C-2.33 39.37 -2.66 35.74 -3 32 C-1.66666667 33.33333333 -0.33333333 34.66666667 1 36 C1 33.36 1 30.72 1 28 C0.67 28 0.34 28 0 28 C0 18.76 0 9.52 0 0 Z " fill="#4471BB" transform="translate(321,297)"/>
<path d="M0 0 C0.33 0 0.66 0 1 0 C1.12117188 1.18335938 1.24234375 2.36671875 1.3671875 3.5859375 C2.52209973 14.84555372 2.52209973 14.84555372 4.6328125 25.95703125 C5.06009667 28.33436763 5.05889125 30.58966521 5 33 C4.34 33 3.68 33 3 33 C-1.17591975 22.844001 -2.13703231 12.85522513 -3 2 C-2.01 2 -1.02 2 0 2 C0 1.34 0 0.68 0 0 Z " fill="#5E85C8" transform="translate(323,336)"/>
<path d="M0 0 C4.60457721 6.90686582 4.83691324 16.97852054 3.5 25 C3.335 25.66 3.17 26.32 3 27 C2.67 27 2.34 27 2 27 C0.24252386 22.49646738 -0.19294408 18.82360189 0 14 C-1.32 13.67 -2.64 13.34 -4 13 C-3.53044382 8.9305131 -3.10290342 5.54864953 -1 2 C-0.67 1.34 -0.34 0.68 0 0 Z " fill="#4F7ECC" transform="translate(212,323)"/>
<path d="M0 0 C1.65 0 3.3 0 5 0 C5 11.55 5 23.1 5 35 C4.67 35 4.34 35 4 35 C3.83028977 32.02097935 3.66416249 29.04182744 3.5 26.0625 C3.42845703 24.81629883 3.42845703 24.81629883 3.35546875 23.54492188 C3.05453711 18.02067678 2.95533839 12.53245695 3 7 C2.01 7.495 2.01 7.495 1 8 C1 9.98 1 11.96 1 14 C0.34 14 -0.32 14 -1 14 C-1.33 14.66 -1.66 15.32 -2 16 C-2.66 15.67 -3.32 15.34 -4 15 C-3.25 8.25 -3.25 8.25 -1 6 C-0.60235737 4.01178687 -0.26224651 2.01055661 0 0 Z " fill="#6E8FCD" transform="translate(398,141)"/>
<path d="M0 0 C-0.33 2.31 -0.66 4.62 -1 7 C11.21 7 23.42 7 36 7 C36 7.66 36 8.32 36 9 C23.46 9 10.92 9 -2 9 C-3.35439668 6.29120665 -3.06501451 3.99066732 -3 1 C-1 0 -1 0 0 0 Z " fill="#7799D8" transform="translate(16,109)"/>
<path d="M0 0 C0.33 0.99 0.66 1.98 1 3 C1.66 3 2.32 3 3 3 C10.73746772 14.34828599 9.25548453 28.59322038 9.125 41.75 C9.11494574 43.5260366 9.10582423 45.30207873 9.09765625 47.078125 C9.0758466 51.38555589 9.04145299 55.6927152 9 60 C8.67 60 8.34 60 8 60 C7.98018066 59.14470703 7.96036133 58.28941406 7.93994141 57.40820312 C7.98761723 35.03994312 7.98761723 35.03994312 5 13 C4.34 12.67 3.68 12.34 3 12 C2.67 11.01 2.34 10.02 2 9 C1.34 9 0.68 9 0 9 C0 6.03 0 3.06 0 0 Z " fill="#6087C9" transform="translate(490,138)"/>
<path d="M0 0 C2.86724686 0.57344937 3.8614515 0.8614515 6 3 C6.125 6.125 6.125 6.125 6 9 C5.34 9 4.68 9 4 9 C3.67 8.34 3.34 7.68 3 7 C0.87586172 9.12413828 1.62490922 13.73362831 1.5 16.6875 C1.27559753 21.86953477 0.99002492 26.89312145 0 32 C-0.33 32 -0.66 32 -1 32 C-1.02469321 27.7641643 -1.04285671 23.52836658 -1.05493164 19.29248047 C-1.05996474 17.8510668 -1.06679173 16.40965824 -1.07543945 14.96826172 C-1.08754983 12.89809915 -1.09323847 10.82800399 -1.09765625 8.7578125 C-1.10289307 7.5114502 -1.10812988 6.26508789 -1.11352539 4.98095703 C-1 2 -1 2 0 0 Z " fill="#416FBC" transform="translate(433,124)"/>
<path d="M0 0 C0.99 0 1.98 0 3 0 C3 0.66 3 1.32 3 2 C3.66 2 4.32 2 5 2 C5 2.66 5 3.32 5 4 C3.35 3.67 1.7 3.34 0 3 C0 3.99 0 4.98 0 6 C-0.66 6 -1.32 6 -2 6 C-2.33 6.99 -2.66 7.98 -3 9 C-3.66 9 -4.32 9 -5 9 C-4.938125 10.03125 -4.87625 11.0625 -4.8125 12.125 C-5.01503988 16.31082414 -6.06028146 18.35332914 -8 22 C-8.70758326 25.2366963 -8.70758326 25.2366963 -9 28 C-9.66 28 -10.32 28 -11 28 C-11.36855661 22.15684205 -10.18853997 17.95005448 -8 12.5625 C-7.71382812 11.83095703 -7.42765625 11.09941406 -7.1328125 10.34570312 C-6.43239577 8.55964046 -5.71766189 6.77920344 -5 5 C-4.34 5 -3.68 5 -3 5 C-2.690625 4.360625 -2.38125 3.72125 -2.0625 3.0625 C-1 1 -1 1 0 0 Z " fill="#6189CA" transform="translate(222,127)"/>
<path d="M0 0 C12.54 0 25.08 0 38 0 C38 0.66 38 1.32 38 2 C36.37989014 2.02187378 36.37989014 2.02187378 34.72705078 2.04418945 C30.72736162 2.10207546 26.72824124 2.17930773 22.72900391 2.26245117 C20.99667579 2.29574643 19.264238 2.32376397 17.53173828 2.34643555 C15.04411993 2.37989807 12.55751096 2.43220658 10.0703125 2.48828125 C9.29317902 2.49467117 8.51604553 2.5010611 7.71536255 2.50764465 C5.30032073 2.53966898 5.30032073 2.53966898 2 3 C1.34 3.99 0.68 4.98 0 6 C0 4.02 0 2.04 0 0 Z " fill="#4573BF" transform="translate(15,46)"/>
<path d="M0 0 C2.06549638 1.68299705 2.92322174 2.56943956 3.3984375 5.234375 C3.34533974 10.9335347 2.64340501 14.93347373 0 20 C-0.99 19.67 -1.98 19.34 -3 19 C-3.194957 14.12607494 -2.65113004 10.56488894 -1 6 C-0.63079809 4.00630969 -0.28674418 2.00720923 0 0 Z " fill="#5C82B9" transform="translate(231,321)"/>
<path d="M0 0 C4.875 0.875 4.875 0.875 6 2 C6.07205511 3.68608966 6.08386068 5.37500659 6.0625 7.0625 C6.05347656 7.98160156 6.04445312 8.90070313 6.03515625 9.84765625 C6.02355469 10.55792969 6.01195312 11.26820312 6 12 C5.01 12.495 5.01 12.495 4 13 C3.59270772 15.32156597 3.25561323 17.6568787 3 20 C-2.5415502 21.96263236 -6.20858017 22.01603857 -12 21 C-12 20.67 -12 20.34 -12 20 C-7.71 19.34 -3.42 18.68 1 18 C1 16.68 1 15.36 1 14 C0.01 14 -0.98 14 -2 14 C-2 13.34 -2 12.68 -2 12 C-2.66 12 -3.32 12 -4 12 C-4 11.34 -4 10.68 -4 10 C-1.03 10 1.94 10 5 10 C4.67 7.69 4.34 5.38 4 3 C2.68 2.67 1.36 2.34 0 2 C0 1.34 0 0.68 0 0 Z " fill="#85A8DB" transform="translate(205,112)"/>
<path d="M0 0 C0.33 0 0.66 0 1 0 C1 2.97 1 5.94 1 9 C1.66 6.36 2.32 3.72 3 1 C3.33 1 3.66 1 4 1 C4.25668426 6.91175936 3.2956568 12.18145712 2 17.9375 C1.80921875 18.81212891 1.6184375 19.68675781 1.421875 20.58789062 C0.95436066 22.72676873 0.48028183 24.86395935 0 27 C-0.99 26.67 -1.98 26.34 -3 26 C-2.9278125 25.29875 -2.855625 24.5975 -2.78125 23.875 C-2.35149013 19.48189911 -1.93209181 15.16649077 -2.0625 10.75 C-1.99496695 6.69801716 -1.27145475 3.81436426 0 0 Z " fill="#7497D2" transform="translate(239,302)"/>
<path d="M0 0 C-0.66 0 -1.32 0 -2 0 C-2 0.66 -2 1.32 -2 2 C-3.65 2.33 -5.3 2.66 -7 3 C-7.10183594 3.58265625 -7.20367187 4.1653125 -7.30859375 4.765625 C-8.11517153 7.37219275 -9.24157009 8.73535414 -11.0625 10.75 C-11.61035156 11.36359375 -12.15820312 11.9771875 -12.72265625 12.609375 C-13.14417969 13.06828125 -13.56570313 13.5271875 -14 14 C-14.99 13.67 -15.98 13.34 -17 13 C-16.67 11.35 -16.34 9.7 -16 8 C-15.01 8 -14.02 8 -13 8 C-12.731875 7.4225 -12.46375 6.845 -12.1875 6.25 C-9.0729254 0.34870075 -9.0729254 0.34870075 -5.5 -0.8125 C-3 -1 -3 -1 0 0 Z " fill="#416FBE" transform="translate(427,340)"/>
<path d="M0 0 C1.30174716 3.90524147 0.80045766 7.35986158 0.44140625 11.38671875 C0.37340317 12.20372757 0.30540009 13.02073639 0.2353363 13.86250305 C0.0168492 16.47136219 -0.21021772 19.07939382 -0.4375 21.6875 C-0.58715426 23.45633244 -0.73624965 25.22521225 -0.88476562 26.99414062 C-1.25002826 31.33000345 -1.62298727 35.66514371 -2 40 C-2.33 40 -2.66 40 -3 40 C-4.89987816 30.73809397 -3.76882207 21.76904212 -2.5625 12.5 C-2.42779297 11.40429688 -2.29308594 10.30859375 -2.15429688 9.1796875 C-1.13069696 1.13069696 -1.13069696 1.13069696 0 0 Z " fill="#658BCB" transform="translate(277,204)"/>
<path d="M0 0 C2.33205508 3.49808262 2.08349099 4.90894125 2 9 C2.20643199 11.25328412 2.20643199 11.25328412 3 13 C3.99 13.33 4.98 13.66 6 14 C4.02 14 2.04 14 0 14 C-0.99 12.02 -1.98 10.04 -3 8 C-3.99 9.485 -3.99 9.485 -5 11 C-5.66 11 -6.32 11 -7 11 C-7 10.34 -7 9.68 -7 9 C-6.34 9 -5.68 9 -5 9 C-4.67 7.02 -4.34 5.04 -4 3 C-3.01 2.67 -2.02 2.34 -1 2 C-0.67 1.34 -0.34 0.68 0 0 Z " fill="#4D7CC3" transform="translate(354,358)"/>
<path d="M0 0 C5.53310453 2.76655227 7.95101198 6.50240948 10.3125 12.125 C10.99104137 14.96253664 11.03158701 16.31787377 10 19 C9.5978125 17.2984375 9.5978125 17.2984375 9.1875 15.5625 C8.795625 14.386875 8.40375 13.21125 8 12 C7.01 11.67 6.02 11.34 5 11 C5 10.01 5 9.02 5 8 C3.35 8 1.7 8 0 8 C0 5.36 0 2.72 0 0 Z " fill="#608BCF" transform="translate(296,111)"/>
<path d="M0 0 C1.04449911 3.13349732 0.93423645 3.98968256 0 7 C-1.32 7.33 -2.64 7.66 -4 8 C-4.33 10.64 -4.66 13.28 -5 16 C-3.02 16.33 -1.04 16.66 1 17 C0.33333333 18.33333333 -0.33333333 19.66666667 -1 21 C-5.875 20.125 -5.875 20.125 -7 19 C-7.203125 16.8203125 -7.203125 16.8203125 -7.25 14.125 C-7.27578125 13.24070312 -7.3015625 12.35640625 -7.328125 11.4453125 C-7 9 -7 9 -5.609375 7.1796875 C-4 6 -4 6 -2 6 C-1.855625 5.38125 -1.71125 4.7625 -1.5625 4.125 C-1 2 -1 2 0 0 Z " fill="#668BCE" transform="translate(442,359)"/>
<path d="M0 0 C0.33 0 0.66 0 1 0 C1.39768197 6.92261201 1.11153378 13.66169045 -2 20 C-2.99 20.33 -3.98 20.66 -5 21 C-6.08333427 17.74999719 -5.92291149 15.94675877 -4.75 12.75 C-4.33041016 11.58404297 -4.33041016 11.58404297 -3.90234375 10.39453125 C-3.60457031 9.60433594 -3.30679688 8.81414062 -3 8 C-2.71253906 7.22011719 -2.42507812 6.44023437 -2.12890625 5.63671875 C-1.42992693 3.7538223 -0.71641723 1.87633085 0 0 Z " fill="#5985C7" transform="translate(236,329)"/>
<path d="M0 0 C0.33 0 0.66 0 1 0 C1.32546559 8.36567104 1.49971519 16.22999013 -2 24 C-2.66 24.66 -3.32 25.32 -4 26 C-4.05441656 24.10448978 -4.09298035 22.2085208 -4.125 20.3125 C-4.14820313 19.25675781 -4.17140625 18.20101563 -4.1953125 17.11328125 C-3.99714996 13.95457034 -3.24103126 11.87782445 -2 9 C-2 7.96875 -2 6.9375 -2 5.875 C-2 3 -2 3 0 0 Z " fill="#4674C4" transform="translate(243,287)"/>
<path d="M0 0 C0.33 0 0.66 0 1 0 C1.33 6.93 1.66 13.86 2 21 C2.33 21 2.66 21 3 21 C3 28.59 3 36.18 3 44 C2.67 44 2.34 44 2 44 C1.93941406 43.16855469 1.87882813 42.33710938 1.81640625 41.48046875 C1.69072266 39.85044922 1.69072266 39.85044922 1.5625 38.1875 C1.48128906 37.10855469 1.40007812 36.02960938 1.31640625 34.91796875 C1.09787539 31.94010095 1.09787539 31.94010095 0 29 C-0.08358958 26.78910055 -0.10731764 24.57573922 -0.09765625 22.36328125 C-0.09443359 21.06455078 -0.09121094 19.76582031 -0.08789062 18.42773438 C-0.07953531 17.05598892 -0.07107037 15.68424413 -0.0625 14.3125 C-0.05748335 12.92903805 -0.05292073 11.54557437 -0.04882812 10.16210938 C-0.03702529 6.77469605 -0.02056019 3.38736967 0 0 Z " fill="#9FC3F0" transform="translate(162,200)"/>
<path d="M0 0 C0.33 0 0.66 0 1 0 C1.75166913 7.69118596 2.13690844 15.27227893 2 23 C3.98 22.34 5.96 21.68 8 21 C7.1875 23.4375 7.1875 23.4375 6 26 C5.01 26.33 4.02 26.66 3 27 C0.72008288 25.22497802 0.04952877 24.3699213 -0.34057617 21.45629883 C-0.32486572 20.46654053 -0.30915527 19.47678223 -0.29296875 18.45703125 C-0.28330078 17.38388672 -0.27363281 16.31074219 -0.26367188 15.20507812 C-0.23853516 14.08552734 -0.21339844 12.96597656 -0.1875 11.8125 C-0.16719727 10.11577148 -0.16719727 10.11577148 -0.14648438 8.38476562 C-0.11109958 5.58936683 -0.06172948 2.79492108 0 0 Z " fill="#6A8FCD" transform="translate(398,331)"/>
<path d="M0 0 C0.33 0 0.66 0 1 0 C2.17818227 6.22254783 1.91929158 12.13418209 1.5625 18.4375 C1.51029297 19.45521484 1.45808594 20.47292969 1.40429688 21.52148438 C1.27553907 24.01470369 1.1406198 26.50742633 1 29 C0.34 29 -0.32 29 -1 29 C-1.10371911 19.27345227 -1.04518445 9.68662016 0 0 Z " fill="#7796D2" transform="translate(195,218)"/>
<path d="M0 0 C2.27492349 3.41238523 2.19555565 4.36044265 1.9765625 8.32421875 C1.925 9.35224609 1.8734375 10.38027344 1.8203125 11.43945312 C1.75585938 12.51130859 1.69140625 13.58316406 1.625 14.6875 C1.56828125 15.77095703 1.5115625 16.85441406 1.453125 17.97070312 C1.31160446 20.64780007 1.16018849 23.32396576 1 26 C0.01 25.67 -0.98 25.34 -2 25 C-1.86155153 21.20802551 -1.71299256 17.4165141 -1.5625 13.625 C-1.52318359 12.54476562 -1.48386719 11.46453125 -1.44335938 10.3515625 C-1.40146484 9.3203125 -1.35957031 8.2890625 -1.31640625 7.2265625 C-1.27974854 6.27346191 -1.24309082 5.32036133 -1.20532227 4.33837891 C-1 2 -1 2 0 0 Z " fill="#4D6BA5" transform="translate(256,126)"/>
<path d="M0 0 C0.33 0.99 0.66 1.98 1 3 C0.67 3.66 0.34 4.32 0 5 C-0.66 5 -1.32 5 -2 5 C-2.226875 5.639375 -2.45375 6.27875 -2.6875 6.9375 C-4 9 -4 9 -6.625 9.75 C-7.40875 9.8325 -8.1925 9.915 -9 10 C-9 9.34 -9 8.68 -9 8 C-10.4540625 7.814375 -10.4540625 7.814375 -11.9375 7.625 C-12.948125 7.41875 -13.95875 7.2125 -15 7 C-15.33 6.34 -15.66 5.68 -16 5 C-15.34773438 5.05800781 -14.69546875 5.11601562 -14.0234375 5.17578125 C-7.70556784 5.52905127 -7.70556784 5.52905127 -2.375 2.5 C-1.59125 1.675 -0.8075 0.85 0 0 Z " fill="#6287C6" transform="translate(458,375)"/>
<path d="M0 0 C0.33 0 0.66 0 1 0 C1 1.98 1 3.96 1 6 C0.01 6 -0.98 6 -2 6 C-2 6.66 -2 7.32 -2 8 C-2.66 8 -3.32 8 -4 8 C-4 8.66 -4 9.32 -4 10 C-4.99 10 -5.98 10 -7 10 C-8.61949011 7.42786866 -9.04408751 6.32330841 -8.625 3.25 C-8.41875 2.5075 -8.2125 1.765 -8 1 C-7.67 1 -7.34 1 -7 1 C-7 2.65 -7 4.3 -7 6 C-6.34 4.68 -5.68 3.36 -5 2 C-3.35 2 -1.7 2 0 2 C0 1.34 0 0.68 0 0 Z " fill="#3F6FC1" transform="translate(364,361)"/>
<path d="M0 0 C0.33 0 0.66 0 1 0 C1.32469196 13.43863932 0.33280584 26.6311776 -1 40 C-1.33 40 -1.66 40 -2 40 C-2.02892857 36.04168191 -2.04677427 32.08339083 -2.0625 28.125 C-2.07087891 26.99707031 -2.07925781 25.86914062 -2.08789062 24.70703125 C-2.09111328 23.63066406 -2.09433594 22.55429688 -2.09765625 21.4453125 C-2.10289307 20.45031738 -2.10812988 19.45532227 -2.11352539 18.43017578 C-2 16 -2 16 -1 14 C-0.76970044 11.62876754 -0.58880058 9.25258057 -0.4375 6.875 C-0.35371094 5.59367188 -0.26992188 4.31234375 -0.18359375 2.9921875 C-0.09271484 1.51105469 -0.09271484 1.51105469 0 0 Z " fill="#7390DA" transform="translate(310,155)"/>
<path d="M0 0 C0.66 0.33 1.32 0.66 2 1 C1.34 7.6 0.68 14.2 0 21 C-0.66 21 -1.32 21 -2 21 C-2.33 21.99 -2.66 22.98 -3 24 C-2.88509088 21.31173136 -2.75836801 18.62486531 -2.625 15.9375 C-2.5940625 15.18533203 -2.563125 14.43316406 -2.53125 13.65820312 C-2.27941541 8.81038719 -1.50831635 4.61691957 0 0 Z " fill="#618CC8" transform="translate(201,165)"/>
<path d="M0 0 C0.66 0 1.32 0 2 0 C2.33 0.66 2.66 1.32 3 2 C3.99 1.67 4.98 1.34 6 1 C6.99 1.33 7.98 1.66 9 2 C9 3.65 9 5.3 9 7 C7.02 7 5.04 7 3 7 C3 9.31 3 11.62 3 14 C1.20724134 10.88089144 0.65709282 8.32317572 0.375 4.75 C0.30023438 3.85796875 0.22546875 2.9659375 0.1484375 2.046875 C0.09945313 1.37140625 0.05046875 0.6959375 0 0 Z " fill="#708DD0" transform="translate(260,124)"/>
<path d="M0 0 C0.33 0 0.66 0 1 0 C1.05416188 1.60379341 1.09286638 3.20811406 1.125 4.8125 C1.14820313 5.70582031 1.17140625 6.59914063 1.1953125 7.51953125 C1 10 1 10 -1 13 C-1.66 13 -2.32 13 -3 13 C-2.67 15.31 -2.34 17.62 -2 20 C-3.98 20.99 -3.98 20.99 -6 22 C-7.11450049 18.65649854 -6.91669067 17.33342063 -6 14 C-5.34 13.01 -4.68 12.02 -4 11 C-3.34 11 -2.68 11 -2 11 C-1.34 7.37 -0.68 3.74 0 0 Z " fill="#4575C2" transform="translate(219,334)"/>
<path d="M0 0 C0.33 0 0.66 0 1 0 C2.04491338 7.06595274 1.81761104 13.47571256 1.0625 20.5625 C0.96259766 21.57119141 0.86269531 22.57988281 0.75976562 23.61914062 C0.51480698 26.08039178 0.26140905 28.54045116 0 31 C-0.33 31 -0.66 31 -1 31 C-1.02932237 27.33335046 -1.04690637 23.6667316 -1.0625 20 C-1.07087891 18.97003906 -1.07925781 17.94007813 -1.08789062 16.87890625 C-1.10613637 11.14974387 -0.86475384 5.66515899 0 0 Z " fill="#4B76BD" transform="translate(227,273)"/>
<path d="M0 0 C0.66 0 1.32 0 2 0 C2 4.95 2 9.9 2 15 C0.68 15 -0.64 15 -2 15 C-2.22577402 9.5814234 -1.46670113 5.22512279 0 0 Z " fill="#6289C4" transform="translate(388,127)"/>
<path d="M0 0 C0.66 8.91 1.32 17.82 2 27 C0.46688648 23.93377297 -0.29476234 22.25340575 -0.8515625 19.06640625 C-0.98046875 18.33486328 -1.109375 17.60332031 -1.2421875 16.84960938 C-1.43167969 15.71749023 -1.43167969 15.71749023 -1.625 14.5625 C-1.7590625 13.81162109 -1.893125 13.06074219 -2.03125 12.28710938 C-2.68728468 8.48143878 -3.16961634 4.87804635 -3 1 C-1 0 -1 0 0 0 Z " fill="#638AC9" transform="translate(149,117)"/>
<path d="M0 0 C0.66 0 1.32 0 2 0 C2.33851178 2.68693722 2.670936 5.37440289 3 8.0625 C3.09539062 8.81466797 3.19078125 9.56683594 3.2890625 10.34179688 C3.84571902 14.93421317 4.09829028 19.3742135 4 24 C3.67 24 3.34 24 3 24 C0.82576642 15.85956596 -0.45636453 8.4342927 0 0 Z " fill="#6897CF" transform="translate(196,336)"/>
<path d="M0 0 C2.475 0.495 2.475 0.495 5 1 C4.67257812 1.80695313 4.34515625 2.61390625 4.0078125 3.4453125 C2.79598708 7.71958047 2.77785444 11.46608628 2.875 15.875 C2.88853516 17.050625 2.88853516 17.050625 2.90234375 18.25 C2.92571937 20.16680055 2.96158347 22.08344191 3 24 C2.67 24 2.34 24 2 24 C2 19.38 2 14.76 2 10 C1.34 10 0.68 10 0 10 C0 6.7 0 3.4 0 0 Z " fill="#7A9ED0" transform="translate(386,142)"/>
<path d="M0 0 C0.33 0 0.66 0 1 0 C2.76125043 9.51458111 2.76125043 9.51458111 0.125 14 C-0.57625 14.99 -1.2775 15.98 -2 17 C-2.33 17.66 -2.66 18.32 -3 19 C-3.66 19 -4.32 19 -5 19 C-3.43913649 12.63647955 -1.74162847 6.31630593 0 0 Z " fill="#5687CB" transform="translate(465,294)"/>
<path d="M0 0 C0.99 0.66 1.98 1.32 3 2 C3.36328125 4.53125 3.36328125 4.53125 3.3125 7.5 C3.30863281 8.4796875 3.30476563 9.459375 3.30078125 10.46875 C3 13 3 13 1 15 C0.67 12.69 0.34 10.38 0 8 C-0.99 7.67 -1.98 7.34 -3 7 C-3 5.02 -3 3.04 -3 1 C-2.01 0.67 -1.02 0.34 0 0 Z " fill="#4471B9" transform="translate(479,189)"/>
<path d="M0 0 C0.33 0.99 0.66 1.98 1 3 C1.66 3 2.32 3 3 3 C7.06612857 8.90244471 7.74319906 13.89945397 8 21 C6 18 6 18 5.5 15.375 C5.335 14.59125 5.17 13.8075 5 13 C4.34 12.67 3.68 12.34 3 12 C2.67 11.01 2.34 10.02 2 9 C1.34 9 0.68 9 0 9 C0 6.03 0 3.06 0 0 Z " fill="#7695D1" transform="translate(490,138)"/>
<path d="M0 0 C1.11328125 1.6015625 1.11328125 1.6015625 2 4 C1.35546875 7.0234375 1.35546875 7.0234375 0.1875 10.375 C-1.26030605 14.59488521 -2.37865252 18.57707491 -3 23 C-3.33 23 -3.66 23 -4 23 C-4.23767383 15.86978521 -3.75472339 8.94307217 -2 2 C-1.34 1.34 -0.68 0.68 0 0 Z " fill="#4F7BBF" transform="translate(287,290)"/>
<path d="M0 0 C0.33 0 0.66 0 1 0 C1 1.98 1 3.96 1 6 C0.34 6 -0.32 6 -1 6 C-0.938125 6.9075 -0.87625 7.815 -0.8125 8.75 C-1.01686856 12.29238832 -1.52653696 13.52653696 -4 16 C-4.66 16 -5.32 16 -6 16 C-6.33 16.99 -6.66 17.98 -7 19 C-7.6875 17.1875 -7.6875 17.1875 -8 15 C-7.3503125 14.38125 -7.3503125 14.38125 -6.6875 13.75 C-4.39887965 11.37661593 -3.52677471 8.8645959 -2.3125 5.8125 C-1.87550781 4.72582031 -1.43851562 3.63914062 -0.98828125 2.51953125 C-0.66214844 1.68808594 -0.33601563 0.85664063 0 0 Z " fill="#5C85C4" transform="translate(346,339)"/>
<path d="M0 0 C2.97 0.495 2.97 0.495 6 1 C3 3 3 3 1 3 C1 13.23 1 23.46 1 34 C0.67 34 0.34 34 0 34 C0 22.78 0 11.56 0 0 Z " fill="#648ACE" transform="translate(178,137)"/>
<path d="M0 0 C2.3125 0.0625 2.3125 0.0625 5 1 C6.9375 4.3125 6.9375 4.3125 8 8 C7.1875 10.4375 7.1875 10.4375 6 12 C5.67 9.69 5.34 7.38 5 5 C2.03 4.505 2.03 4.505 -1 4 C-1.33 5.32 -1.66 6.64 -2 8 C-2.6875 6.25 -2.6875 6.25 -3 4 C-1.5625 1.75 -1.5625 1.75 0 0 Z " fill="#5F80C1" transform="translate(481,126)"/>
<path d="M0 0 C1.28020933 3.840628 0.48667326 6.77739662 -0.3125 10.625 C-0.44333984 11.31851563 -0.57417969 12.01203125 -0.70898438 12.7265625 C-1.06756384 14.50040489 -1.52682958 16.2532299 -2 18 C-2.66 18.33 -3.32 18.66 -4 19 C-5.125 11.25 -5.125 11.25 -4 9 C-3.34 9 -2.68 9 -2 9 C-1.34 6.03 -0.68 3.06 0 0 Z " fill="#5B87CA" transform="translate(301,236)"/>
<path d="M0 0 C0.33 0 0.66 0 1 0 C1.33 2.97 1.66 5.94 2 9 C2.66 8.34 3.32 7.68 4 7 C4 9.31 4 11.62 4 14 C3.01 14.33 2.02 14.66 1 15 C0.34 15.66 -0.32 16.32 -1 17 C-1.10477512 11.21408489 -0.99250545 5.70690634 0 0 Z " fill="#3F6EBD" transform="translate(482,161)"/>
<path d="M0 0 C5.94 1.485 5.94 1.485 12 3 C12 3.66 12 4.32 12 5 C6.06 5.495 6.06 5.495 0 6 C-1 2 -1 2 0 0 Z " fill="#4F7ABF" transform="translate(190,127)"/>
<path d="M0 0 C0.33 0 0.66 0 1 0 C1.33 9.24 1.66 18.48 2 28 C0.68 28.33 -0.64 28.66 -2 29 C-2 28.34 -2 27.68 -2 27 C-1.34 27 -0.68 27 0 27 C0 18.09 0 9.18 0 0 Z " fill="#507BBE" transform="translate(175,343)"/>
<path d="M0 0 C0.99 0.495 0.99 0.495 2 1 C3.62308511 7.65464893 3.33484389 14.32578053 2 21 C1.67 21 1.34 21 1 21 C0.06145994 13.96094956 -0.10808032 7.09727428 0 0 Z " fill="#7B97D6" transform="translate(194,314)"/>
<path d="M0 0 C0.99 0.33 1.98 0.66 3 1 C3 3.64 3 6.28 3 9 C2.34 9 1.68 9 1 9 C0.67 9.99 0.34 10.98 0 12 C-0.99 12 -1.98 12 -3 12 C-3 11.34 -3 10.68 -3 10 C-3.66 9.67 -4.32 9.34 -5 9 C-2 7 -2 7 1 7 C0.67 4.69 0.34 2.38 0 0 Z " fill="#7196CE" transform="translate(213,289)"/>
<path d="M0 0 C3 2 3 2 3.58203125 4.1015625 C4.11423582 9.9287515 3.75954841 14.41084624 2 20 C1.67 20 1.34 20 1 20 C0.67 13.4 0.34 6.8 0 0 Z " fill="#5483D0" transform="translate(488,170)"/>
<path d="M0 0 C1.875 0.25 1.875 0.25 4 1 C5.25 3.0625 5.25 3.0625 6 5 C4.35 4.67 2.7 4.34 1 4 C0.67 10.6 0.34 17.2 0 24 C-0.33 24 -0.66 24 -1 24 C-1.02893932 20.37501666 -1.04677792 16.75006287 -1.0625 13.125 C-1.07087891 12.09246094 -1.07925781 11.05992187 -1.08789062 9.99609375 C-1.09111328 9.00996094 -1.09433594 8.02382812 -1.09765625 7.0078125 C-1.10289307 6.09660645 -1.10812988 5.18540039 -1.11352539 4.24658203 C-1 2 -1 2 0 0 Z " fill="#85AEDD" transform="translate(433,124)"/>
<path d="M0 0 C0.66 0 1.32 0 2 0 C4.25768639 7.34103058 5.5697663 14.3299717 6 22 C5.34 22.33 4.68 22.66 4 23 C3.95101563 22.25234375 3.90203125 21.5046875 3.8515625 20.734375 C3.77679688 19.74953125 3.70203125 18.7646875 3.625 17.75 C3.55539062 16.77546875 3.48578125 15.8009375 3.4140625 14.796875 C3.01534751 12.10366811 2.36492937 10.33036721 1 8 C0.67 8 0.34 8 0 8 C0 5.36 0 2.72 0 0 Z " fill="#7B9AD0" transform="translate(344,306)"/>
<path d="M0 0 C0.33 0 0.66 0 1 0 C1.24867947 2.60364409 1.47457902 5.20589894 1.6875 7.8125 C1.79674805 8.91948242 1.79674805 8.91948242 1.90820312 10.04882812 C2.07421875 12.20703125 2.07421875 12.20703125 2 16 C0.49536133 17.73706055 0.49536133 17.73706055 -1 19 C-1.02683987 16.02077407 -1.04676037 13.04178705 -1.0625 10.0625 C-1.07087891 9.21236328 -1.07925781 8.36222656 -1.08789062 7.48632812 C-1.09111328 6.67744141 -1.09433594 5.86855469 -1.09765625 5.03515625 C-1.10289307 4.2862915 -1.10812988 3.53742676 -1.11352539 2.76586914 C-1 1 -1 1 0 0 Z " fill="#5C85C5" transform="translate(390,145)"/>
<path d="M0 0 C1.05960938 0.00676758 1.05960938 0.00676758 2.140625 0.01367188 C3.88545275 0.02546125 5.630237 0.04339676 7.375 0.0625 C7.375 0.7225 7.375 1.3825 7.375 2.0625 C2.425 2.0625 -2.525 2.0625 -7.625 2.0625 C-7.625 2.7225 -7.625 3.3825 -7.625 4.0625 C-8.615 4.3925 -9.605 4.7225 -10.625 5.0625 C-10.25 3.125 -10.25 3.125 -9.625 1.0625 C-6.55966836 -0.47016582 -3.35745728 -0.04026471 0 0 Z " fill="#8DA7DD" transform="translate(156.625,108.9375)"/>
<path d="M0 0 C0.66 0 1.32 0 2 0 C0.50829734 4.9723422 -1.60457417 9.41845739 -4 14 C-4.66 14 -5.32 14 -6 14 C-6 12.35 -6 10.7 -6 9 C-5.34 9 -4.68 9 -4 9 C-3.7834375 7.824375 -3.7834375 7.824375 -3.5625 6.625 C-3 4 -3 4 -2 2 C-1.34 2 -0.68 2 0 2 C0 1.34 0 0.68 0 0 Z " fill="#5980CA" transform="translate(467,355)"/>
<path d="M0 0 C0.33 0.66 0.66 1.32 1 2 C0.67 2.99 0.34 3.98 0 5 C0.66 5 1.32 5 2 5 C2.33 3.68 2.66 2.36 3 1 C3.33 3.64 3.66 6.28 4 9 C2.02 9 0.04 9 -2 9 C-2.6875 6.75 -2.6875 6.75 -3 4 C-1.5625 1.6875 -1.5625 1.6875 0 0 Z " fill="#4370BB" transform="translate(228,346)"/>
<path d="M0 0 C0.66 0 1.32 0 2 0 C2 4.29 2 8.58 2 13 C0.02 13.99 0.02 13.99 -2 15 C-3.09066144 11.07361883 -2.9194152 9.51892786 -1 6 C-0.61709538 4.00889599 -0.27395385 2.00899487 0 0 Z " fill="#4871BA" transform="translate(349,328)"/>
<path d="M0 0 C0.5534764 2.07553648 1 3.84365964 1 6 C0.34 6 -0.32 6 -1 6 C-1.66 8.31 -2.32 10.62 -3 13 C-3.66 13 -4.32 13 -5 13 C-4.64989059 4.80743982 -4.64989059 4.80743982 -1.9375 1.4375 C-1.298125 0.963125 -0.65875 0.48875 0 0 Z " fill="#3A6DC0" transform="translate(477,184)"/>
<path d="M0 0 C0.33 0 0.66 0 1 0 C1.05416741 2.72943537 1.09375225 5.45778564 1.125 8.1875 C1.15013672 9.34088867 1.15013672 9.34088867 1.17578125 10.51757812 C1.21266851 14.8149434 0.9958504 18.07901831 -1 22 C-1.33 22 -1.66 22 -2 22 C-1.46589137 14.64748331 -0.86859084 7.32097997 0 0 Z " fill="#6B93D3" transform="translate(241,279)"/>
<path d="M0 0 C0.33 0 0.66 0 1 0 C1 3.63 1 7.26 1 11 C0.01 11.33 -0.98 11.66 -2 12 C-2.33 8.7 -2.66 5.4 -3 2 C-2.01 2 -1.02 2 0 2 C0 1.34 0 0.68 0 0 Z " fill="#5B7FBB" transform="translate(323,336)"/>
<path d="M0 0 C0.66 0 1.32 0 2 0 C1.22095672 11.52164009 1.22095672 11.52164009 -1 17 C-1.33 17 -1.66 17 -2 17 C-2.25287193 10.93107371 -1.69832609 5.83799592 0 0 Z " fill="#4F73C1" transform="translate(286,218)"/>
<path d="M0 0 C0.33 0 0.66 0 1 0 C2.34274501 7.44613143 1.36561846 12.84968433 -1 20 C-2.33769559 16.11668968 -1.9309827 12.33234777 -1.625 8.3125 C-1.58117187 7.62349609 -1.53734375 6.93449219 -1.4921875 6.22460938 C-1.13162202 1.13162202 -1.13162202 1.13162202 0 0 Z " fill="#6A90CC" transform="translate(387,174)"/>
<path d="M0 0 C1.98 0 3.96 0 6 0 C6 2.97 6 5.94 6 9 C4.68 8.34 3.36 7.68 2 7 C2.66 7 3.32 7 4 7 C4 5.35 4 3.7 4 2 C2.35 2.66 0.7 3.32 -1 4 C-0.67 2.68 -0.34 1.36 0 0 Z " fill="#4870C0" transform="translate(297,356)"/>
<path d="M0 0 C3 3 3 3 4 5 C4.33 3.35 4.66 1.7 5 0 C5.33 0 5.66 0 6 0 C6.125 6.75 6.125 6.75 5 9 C4.01 9 3.02 9 2 9 C1.67 9.66 1.34 10.32 1 11 C0.67 7.37 0.34 3.74 0 0 Z " fill="#4268A5" transform="translate(318,329)"/>
<path d="M0 0 C1.65 0 3.3 0 5 0 C5 0.66 5 1.32 5 2 C6.32 1.67 7.64 1.34 9 1 C8.34 2.65 7.68 4.3 7 6 C6.38125 5.814375 5.7625 5.62875 5.125 5.4375 C2.95839822 4.76313824 2.95839822 4.76313824 1 6 C0.67 4.02 0.34 2.04 0 0 Z " fill="#466BAF" transform="translate(201,164)"/>
<path d="M0 0 C0.66 0.66 1.32 1.32 2 2 C4.31765729 2.71927295 6.65095874 3.3909893 9 4 C9 4.99 9 5.98 9 7 C2.47692308 6.38461538 2.47692308 6.38461538 0.0625 4.4375 C-0.288125 3.963125 -0.63875 3.48875 -1 3 C-0.67 2.01 -0.34 1.02 0 0 Z " fill="#557CC3" transform="translate(385,362)"/>
<path d="M0 0 C1.32 0 2.64 0 4 0 C4.33 3.3 4.66 6.6 5 10 C4.67 8.68 4.34 7.36 4 6 C2.35 6 0.7 6 -1 6 C-1.042721 4.33388095 -1.04063832 2.66617115 -1 1 C-0.67 0.67 -0.34 0.34 0 0 Z " fill="#6492CC" transform="translate(241,243)"/>
<path d="M0 0 C0.99 0 1.98 0 3 0 C2.625 1.9375 2.625 1.9375 2 4 C1.01 4.495 1.01 4.495 0 5 C-0.78344256 6.99291777 -1.48016365 9.02051823 -2.125 11.0625 C-2.47820312 12.16722656 -2.83140625 13.27195313 -3.1953125 14.41015625 C-3.46085937 15.26480469 -3.72640625 16.11945313 -4 17 C-5.12793443 13.66918692 -4.87365459 11.78300608 -3.6875 8.5 C-3.42324219 7.7471875 -3.15898437 6.994375 -2.88671875 6.21875 C-2.03097227 4.0774989 -1.06411184 2.0445817 0 0 Z " fill="#7EA2D7" transform="translate(475,180)"/>
<path d="M0 0 C0.66 0 1.32 0 2 0 C2.33 1.98 2.66 3.96 3 6 C2.34 6 1.68 6 1 6 C1 7.32 1 8.64 1 10 C1.66 10 2.32 10 3 10 C2.67 10.99 2.34 11.98 2 13 C1.34 12.67 0.68 12.34 0 12 C-0.44921875 10.0390625 -0.44921875 10.0390625 -0.6875 7.625 C-0.77386719 6.83351562 -0.86023438 6.04203125 -0.94921875 5.2265625 C-1 3 -1 3 0 0 Z " fill="#5482D1" transform="translate(491,159)"/>
<path d="M0 0 C0.66 0 1.32 0 2 0 C4.35273568 3.52910353 4.40753493 4.84314368 4 9 C2.5 12.375 2.5 12.375 1 15 C0.67 15 0.34 15 0 15 C0 13.35 0 11.7 0 10 C0.66 10 1.32 10 2 10 C2 8.02 2 6.04 2 4 C1.34 4 0.68 4 0 4 C0 2.68 0 1.36 0 0 Z " fill="#7092CC" transform="translate(433,340)"/>
<path d="M0 0 C0.66 0 1.32 0 2 0 C2 2.97 2 5.94 2 9 C1.34 9 0.68 9 0 9 C-0.33 10.65 -0.66 12.3 -1 14 C-1.33 14 -1.66 14 -2 14 C-2.21192221 8.80790596 -1.5912689 4.873261 0 0 Z " fill="#698DC6" transform="translate(237,265)"/>
<path d="M0 0 C0.66 0 1.32 0 2 0 C2.2358396 5.77807024 1.86783046 10.51324804 0 16 C-0.33 16 -0.66 16 -1 16 C-1.11138159 10.54230189 -0.91657981 5.38490641 0 0 Z " fill="#4D76C0" transform="translate(491,258)"/>
<path d="M0 0 C0.33 0 0.66 0 1 0 C1 4.29 1 8.58 1 13 C0.01 13 -0.98 13 -2 13 C-3.45047396 10.09905209 -2.45356803 8.44027404 -1.5625 5.375 C-1.27503906 4.37210938 -0.98757813 3.36921875 -0.69140625 2.3359375 C-0.46324219 1.56507813 -0.23507812 0.79421875 0 0 Z " fill="#3B6FC0" transform="translate(324,177)"/>
<path d="M0 0 C0.33 0 0.66 0 1 0 C1.33 4.62 1.66 9.24 2 14 C1.01 14 0.02 14 -1 14 C-1.02685938 11.85423363 -1.04633088 9.70837355 -1.0625 7.5625 C-1.07410156 6.36753906 -1.08570313 5.17257813 -1.09765625 3.94140625 C-1 1 -1 1 0 0 Z " fill="#4D71B7" transform="translate(260,125)"/>
<path d="M0 0 C1.11375 0.185625 1.11375 0.185625 2.25 0.375 C1.92 1.695 1.59 3.015 1.25 4.375 C-0.73 4.705 -2.71 5.035 -4.75 5.375 C-4.75 6.035 -4.75 6.695 -4.75 7.375 C-5.41 7.045 -6.07 6.715 -6.75 6.375 C-3.42692308 0.46730769 -3.42692308 0.46730769 0 0 Z " fill="#6589D0" transform="translate(345.75,108.625)"/>
<path d="M0 0 C0.33 0.66 0.66 1.32 1 2 C-0.8125 5 -0.8125 5 -3 8 C-3.99 8 -4.98 8 -6 8 C-6.33 6.02 -6.66 4.04 -7 2 C-4.525 2.495 -4.525 2.495 -2 3 C-2 2.34 -2 1.68 -2 1 C-1.34 0.67 -0.68 0.34 0 0 Z " fill="#5585C9" transform="translate(228,361)"/>
<path d="M0 0 C4.04397819 4.04397819 4.125 11.10384145 4.125 16.625 C4.08375 17.73875 4.0425 18.8525 4 20 C3.67 20 3.34 20 3 20 C2.80083984 18.96939453 2.80083984 18.96939453 2.59765625 17.91796875 C2.42105469 17.01691406 2.24445313 16.11585938 2.0625 15.1875 C1.88847656 14.29417969 1.71445312 13.40085937 1.53515625 12.48046875 C1.02258847 9.88602829 1.02258847 9.88602829 0 7 C-0.03954234 4.66700175 -0.04401732 2.33291811 0 0 Z " fill="#799AD3" transform="translate(334,277)"/>
<path d="M0 0 C0.33 0 0.66 0 1 0 C1.1963696 2.37456165 1.38231294 4.74920019 1.5625 7.125 C1.61857422 7.79015625 1.67464844 8.4553125 1.73242188 9.140625 C2.03625857 13.2728041 1.85227531 16.94695741 1 21 C0.67 21 0.34 21 0 21 C-0.88826175 13.81191259 -1.01202288 7.17757765 0 0 Z " fill="#7398D1" transform="translate(163,250)"/>
<path d="M0 0 C1.1700097 3.91736581 0.69584017 6.97959015 0 11 C-0.99 11.33 -1.98 11.66 -3 12 C-3.3721042 13.32303717 -3.70630173 14.65737935 -4 16 C-4.66 16.33 -5.32 16.66 -6 17 C-4.14506608 11.28062041 -2.06896109 5.64444725 0 0 Z " fill="#7991D6" transform="translate(452,204)"/>
<path d="M0 0 C0.66 1.32 1.32 2.64 2 4 C1.01 4.495 1.01 4.495 0 5 C-0.65772428 8.02934491 -0.65772428 8.02934491 -1 11 C-1.99 11 -2.98 11 -4 11 C-2.25 3.375 -2.25 3.375 0 0 Z " fill="#7197D1" transform="translate(338,117)"/>
<path d="M0 0 C3.3 0 6.6 0 10 0 C9 2 9 2 6.71484375 2.8515625 C5.79832031 3.10679687 4.88179687 3.36203125 3.9375 3.625 C2.55884766 4.01558594 2.55884766 4.01558594 1.15234375 4.4140625 C0.44207031 4.60742188 -0.26820313 4.80078125 -1 5 C-0.67 3.35 -0.34 1.7 0 0 Z " fill="#6394D6" transform="translate(211,369)"/>
<path d="M0 0 C0.33 0 0.66 0 1 0 C1.2493357 1.60115576 1.47378648 3.20620159 1.6875 4.8125 C1.81511719 5.70582031 1.94273437 6.59914063 2.07421875 7.51953125 C2 10 2 10 0.51953125 11.82421875 C-0.23263672 12.40623047 -0.23263672 12.40623047 -1 13 C-2.53690745 10.58959839 -3.09752136 9.49917715 -2.5390625 6.640625 C-2.23742187 5.85171875 -1.93578125 5.0628125 -1.625 4.25 C-1.32851562 3.45078125 -1.03203125 2.6515625 -0.7265625 1.828125 C-0.48679688 1.22484375 -0.24703125 0.6215625 0 0 Z " fill="#8EA9D5" transform="translate(233,337)"/>
<path d="M0 0 C0 0.99 0 1.98 0 3 C-1.98 3.33 -3.96 3.66 -6 4 C-6.66 2.35 -7.32 0.7 -8 -1 C-4.59745511 -2.2151946 -3.06748874 -1.86240388 0 0 Z " fill="#6F92CF" transform="translate(356,290)"/>
<path d="M0 0 C1.29065057 3.8719517 0.22324098 6.44232601 -0.9375 10.1875 C-1.23043945 11.16879883 -1.23043945 11.16879883 -1.52929688 12.16992188 C-2.01182563 13.78227407 -2.50490205 15.39146289 -3 17 C-3.33 17 -3.66 17 -4 17 C-4.57374185 10.11509775 -3.4753869 5.97332123 0 0 Z " fill="#6888D1" transform="translate(472,201)"/>
<path d="M0 0 C1.26823485 3.65393537 0.75715321 6.49070026 0.0625 10.25 C-0.13214844 11.32765625 -0.32679688 12.4053125 -0.52734375 13.515625 C-0.68332031 14.33546875 -0.83929688 15.1553125 -1 16 C-1.66 16 -2.32 16 -3 16 C-3.33 16.66 -3.66 17.32 -4 18 C-3.41632611 11.69632197 -1.95928381 6.01339937 0 0 Z " fill="#82A3D8" transform="translate(331,134)"/>
<path d="M0 0 C0.66 0 1.32 0 2 0 C1.49357808 4.35522853 0.61588503 7.44239635 -2 11 C-2.66 11 -3.32 11 -4 11 C-3.34 8.36 -2.68 5.72 -2 3 C-1.34 3 -0.68 3 0 3 C0 2.01 0 1.02 0 0 Z " fill="#6283C9" transform="translate(280,106)"/>
<path d="M0 0 C0.33 0 0.66 0 1 0 C1.13277344 0.71027344 1.26554687 1.42054688 1.40234375 2.15234375 C1.57894531 3.07144531 1.75554687 3.99054688 1.9375 4.9375 C2.11152344 5.85402344 2.28554688 6.77054688 2.46484375 7.71484375 C2.77714988 9.95289844 2.77714988 9.95289844 4 11 C4.04080783 12.99958364 4.04254356 15.00045254 4 17 C1.04182028 14.55628632 0.41175517 12.78814755 0 9 C-0.07064019 5.99779174 -0.05886846 3.00229157 0 0 Z " fill="#7B9BD0" transform="translate(432,230)"/>
<path d="M0 0 C1.31600401 2.63200802 1.63637344 5.09098753 2 8 C1.67 8.66 1.34 9.32 1 10 C0.34 10 -0.32 10 -1 10 C-1.33 10.66 -1.66 11.32 -2 12 C-3.6442351 7.06729471 -2.18615592 4.45975807 0 0 Z " fill="#6790C9" transform="translate(476,191)"/>
<path d="M0 0 C0.33 0 0.66 0 1 0 C1 3.96 1 7.92 1 12 C-2.28976808 13.09658936 -3.71303767 12.79953138 -7 12 C-7 11.34 -7 10.68 -7 10 C-4.69 10 -2.38 10 0 10 C0 6.7 0 3.4 0 0 Z " fill="#6E90CF" transform="translate(272,362)"/>
<path d="M0 0 C1.85776765 3.13498292 2.20140476 5.37471432 2 9 C1.01 9 0.02 9 -1 9 C-3 6 -3 6 -2.625 3.8125 C-2.41875 3.214375 -2.2125 2.61625 -2 2 C-1.34 2 -0.68 2 0 2 C0 1.34 0 0.68 0 0 Z " fill="#4777CF" transform="translate(480,182)"/>
<path d="M0 0 C0.33 0 0.66 0 1 0 C1.33 2.64 1.66 5.28 2 8 C1.34 8 0.68 8 0 8 C-0.33 8.66 -0.66 9.32 -1 10 C-1.66 9.67 -2.32 9.34 -3 9 C-2.25 2.25 -2.25 2.25 0 0 Z " fill="#5C88CA" transform="translate(397,147)"/>
<path d="M0 0 C0.33 0.66 0.66 1.32 1 2 C3.52733235 2.65555119 3.52733235 2.65555119 6 3 C6 5.31 6 7.62 6 10 C5.34 10 4.68 10 4 10 C4 8.02 4 6.04 4 4 C3.195625 3.87625 2.39125 3.7525 1.5625 3.625 C0.716875 3.41875 -0.12875 3.2125 -1 3 C-1.33 2.34 -1.66 1.68 -2 1 C-1.34 0.67 -0.68 0.34 0 0 Z " fill="#426DB7" transform="translate(204,112)"/>
<path d="M0 0 C2.83328987 2.83328987 3.7191375 4.35446828 5 8 C3.02 8.33 1.04 8.66 -1 9 C-0.67 6.03 -0.34 3.06 0 0 Z " fill="#6492CE" transform="translate(297,348)"/>
<path d="M0 0 C0.33 0 0.66 0 1 0 C1.16682272 4.92127034 1.24828052 8.50343896 -1 13 C-1.99 13 -2.98 13 -4 13 C-3.79503906 12.39671875 -3.59007812 11.7934375 -3.37890625 11.171875 C-2.97478516 9.97304687 -2.97478516 9.97304687 -2.5625 8.75 C-2.29566406 7.96109375 -2.02882813 7.1721875 -1.75390625 6.359375 C-1.08045292 4.25178012 -0.50849405 2.15246027 0 0 Z " fill="#7197CF" transform="translate(461,179)"/>
<path d="M0 0 C1.14109582 3.42328747 0.84733551 4.06602175 -0.375 7.3125 C-1.64759778 10.86880066 -2.5176786 14.2378931 -3 18 C-3.33 18 -3.66 18 -4 18 C-4 15.03 -4 12.06 -4 9 C-3.34 9 -2.68 9 -2 9 C-1.34 6.03 -0.68 3.06 0 0 Z " fill="#80A1DE" transform="translate(276,265)"/>
<path d="M0 0 C0.96661363 3.12180401 0.98988909 5.52083795 0.5625 8.75 C0.46066406 9.54921875 0.35882813 10.3484375 0.25390625 11.171875 C0.12822266 12.07679688 0.12822266 12.07679688 0 13 C-1.32 13.33 -2.64 13.66 -4 14 C-3.67 13.01 -3.34 12.02 -3 11 C-2.47110717 9.10639926 -1.95102908 7.21032488 -1.4375 5.3125 C-1.03337891 3.82169922 -1.03337891 3.82169922 -0.62109375 2.30078125 C-0.41613281 1.54152344 -0.21117187 0.78226562 0 0 Z " fill="#7291CE" transform="translate(273,124)"/>
<path d="M0 0 C0.66 0 1.32 0 2 0 C5 6.625 5 6.625 5 10 C4.01 9.67 3.02 9.34 2 9 C1.26953125 6.93359375 1.26953125 6.93359375 0.8125 4.4375 C0.65394531 3.61121094 0.49539063 2.78492188 0.33203125 1.93359375 C0.16767578 0.97646484 0.16767578 0.97646484 0 0 Z " fill="#5374B5" transform="translate(275,342)"/>
<path d="M0 0 C2.67455183 1.33727591 2.98881385 2.73288323 4.1875 5.4375 C4.55230469 6.24058594 4.91710937 7.04367187 5.29296875 7.87109375 C6 10 6 10 5 12 C2.26629955 9.63907689 1.08902355 7.43461272 0 4 C0 2.68 0 1.36 0 0 Z " fill="#486EBB" transform="translate(286,324)"/>
<path d="M0 0 C0.66 0 1.32 0 2 0 C2.6875 1.625 2.6875 1.625 3 4 C1.5625 7.25 1.5625 7.25 0 10 C-1.07193479 6.78419562 -1.14636054 4.36629251 -1 1 C-0.67 0.67 -0.34 0.34 0 0 Z " fill="#7596D3" transform="translate(216,226)"/>
<path d="M0 0 C2.50356732 3.75535098 1.9608592 4.86889414 1.125 9.1875 C0.92132813 10.27417969 0.71765625 11.36085937 0.5078125 12.48046875 C0.34023438 13.31191406 0.17265625 14.14335937 0 15 C-0.33 15 -0.66 15 -1 15 C-1.18451025 4.44191344 -1.18451025 4.44191344 0 0 Z " fill="#7A96CF" transform="translate(323,169)"/>
<path d="M0 0 C0.66 0.33 1.32 0.66 2 1 C2 4.3 2 7.6 2 11 C1.01 10.67 0.02 10.34 -1 10 C-1.02689216 8.52093108 -1.04634621 7.04172517 -1.0625 5.5625 C-1.07410156 4.73878906 -1.08570313 3.91507813 -1.09765625 3.06640625 C-1 1 -1 1 0 0 Z " fill="#7693CF" transform="translate(228,164)"/>
<path d="M0 0 C0.33 0 0.66 0 1 0 C1 1.98 1 3.96 1 6 C1.66 6 2.32 6 3 6 C3.93065133 8.60582371 4.14917407 9.64198224 3.0625 12.25 C2.711875 12.8275 2.36125 13.405 2 14 C0.4087311 9.126739 -0.21192221 5.19209404 0 0 Z " fill="#7499D8" transform="translate(163,154)"/>
<path d="M0 0 C2.23551759 3.35327639 2.17283528 3.90743657 1.625 7.6875 C1.51414062 8.49574219 1.40328125 9.30398437 1.2890625 10.13671875 C1.19367188 10.75160156 1.09828125 11.36648437 1 12 C-1.44576827 8.33134759 -1.23607254 6.32799657 -1 2 C-0.67 1.34 -0.34 0.68 0 0 Z " fill="#4B64AD" transform="translate(256,126)"/>
<path d="M0 0 C0.99 0 1.98 0 3 0 C3.66 0.66 4.32 1.32 5 2 C4.34 2 3.68 2 3 2 C2.87625 2.94875 2.7525 3.8975 2.625 4.875 C2 8 2 8 0 10 C0 6.7 0 3.4 0 0 Z " fill="#3B6AB8" transform="translate(207,323)"/>
<path d="M0 0 C0.66 0 1.32 0 2 0 C3.71050559 4.97601626 2.00885647 8.42616295 0 13 C-0.96661363 9.87819599 -0.98988909 7.47916205 -0.5625 4.25 C-0.46066406 3.45078125 -0.35882813 2.6515625 -0.25390625 1.828125 C-0.17011719 1.22484375 -0.08632813 0.6215625 0 0 Z " fill="#4A75C2" transform="translate(277,259)"/>
<path d="M0 0 C0.66 0.66 1.32 1.32 2 2 C1.625 4.625 1.625 4.625 1 7 C-3.875 5.25 -3.875 5.25 -5 3 C-3.35 2.67 -1.7 2.34 0 2 C0 1.34 0 0.68 0 0 Z " fill="#5C89C7" transform="translate(445,249)"/>
<path d="M0 0 C2 3 2 3 2.4375 5.125 C2.7159375 6.053125 2.7159375 6.053125 3 7 C3.99 7.33 4.98 7.66 6 8 C4.02 8 2.04 8 0 8 C-0.98120464 4.94736336 -0.98120464 3.05263664 0 0 Z " fill="#678BCB" transform="translate(354,364)"/>
<path d="M0 0 C0.33 0.66 0.66 1.32 1 2 C2.32 2 3.64 2 5 2 C4.34 3.65 3.68 5.3 3 7 C2.67 6.01 2.34 5.02 2 4 C1.34 3.67 0.68 3.34 0 3 C-0.33 4.65 -0.66 6.3 -1 8 C-1.93065133 5.39417629 -2.14917407 4.35801776 -1.0625 1.75 C-0.711875 1.1725 -0.36125 0.595 0 0 Z " fill="#6086CE" transform="translate(227,353)"/>
<path d="M0 0 C0.33 0 0.66 0 1 0 C1 3.3 1 6.6 1 10 C0.34 10 -0.32 10 -1 10 C-1 8.68 -1 7.36 -1 6 C-1.66 6.66 -2.32 7.32 -3 8 C-2.45276317 4.62537285 -1.9451 2.91765 0 0 Z " fill="#4D80CB" transform="translate(229,341)"/>
<path d="M0 0 C0.66 0 1.32 0 2 0 C1.5251065 4.11574371 0.9789756 7.36383344 -1 11 C-1.02688151 9.35425434 -1.04634123 7.70838587 -1.0625 6.0625 C-1.07410156 5.14597656 -1.08570313 4.22945313 -1.09765625 3.28515625 C-1 1 -1 1 0 0 Z " fill="#769AD7" transform="translate(471,341)"/>
<path d="M0 0 C0.33 0 0.66 0 1 0 C1.05416188 1.60379341 1.09286638 3.20811406 1.125 4.8125 C1.14820313 5.70582031 1.17140625 6.59914063 1.1953125 7.51953125 C1 10 1 10 -1 13 C-1.66 13 -2.32 13 -3 13 C-2.01 8.71 -1.02 4.42 0 0 Z " fill="#5F86C6" transform="translate(219,334)"/>
<path d="M0 0 C1.31223496 3.93670488 0.24296256 6.12488144 -1 10 C-0.01 10.33 0.98 10.66 2 11 C1.67 11.66 1.34 12.32 1 13 C0.01 12.67 -0.98 12.34 -2 12 C-2.17835515 7.45194365 -1.99785435 4.1205746 0 0 Z " fill="#6690C7" transform="translate(230,328)"/>
<path d="M0 0 C0.33 0 0.66 0 1 0 C2.51708428 9.41002278 2.51708428 9.41002278 0 14 C-0.33 14 -0.66 14 -1 14 C-0.67 9.38 -0.34 4.76 0 0 Z " fill="#86ABDC" transform="translate(227,273)"/>
<path d="M0 0 C0 3.57575896 -1.08840607 5.05295935 -3 8 C-4.32 7.67 -5.64 7.34 -7 7 C-6.01 6.67 -5.02 6.34 -4 6 C-2.90833725 4.06669397 -2.90833725 4.06669397 -2 2 C-1.34 1.34 -0.68 0.68 0 0 Z " fill="#7D98CE" transform="translate(418,342)"/>
<path d="M0 0 C-0.66 0 -1.32 0 -2 0 C-2 0.66 -2 1.32 -2 2 C-3.65 2.33 -5.3 2.66 -7 3 C-7 3.66 -7 4.32 -7 5 C-7.66 4.67 -8.32 4.34 -9 4 C-8.67 2.68 -8.34 1.36 -8 0 C-4.71303767 -0.79953138 -3.28976808 -1.09658936 0 0 Z " fill="#4D6DA9" transform="translate(427,340)"/>
<path d="M0 0 C0.66 0 1.32 0 2 0 C2.96070434 2.88211302 3.10581883 4.69850044 3.0625 7.6875 C3.05347656 8.49574219 3.04445312 9.30398438 3.03515625 10.13671875 C3.02355469 10.75160156 3.01195312 11.36648438 3 12 C2.01 12.495 2.01 12.495 1 13 C1.06510417 10.98177083 1.13020833 8.96354167 1.1953125 6.9453125 C1.18331689 4.76136355 1.18331689 4.76136355 -1 3 C-0.67 2.01 -0.34 1.02 0 0 Z " fill="#5275BC" transform="translate(212,330)"/>
<path d="M0 0 C0.66 0.33 1.32 0.66 2 1 C2 4.3 2 7.6 2 11 C-1 8 -1 8 -1.25 4.9375 C-1 2 -1 2 0 0 Z " fill="#497CD1" transform="translate(358,288)"/>
<path d="M0 0 C0.25 7.625 0.25 7.625 -2 11 C-2 8.69 -2 6.38 -2 4 C-2.66 3.67 -3.32 3.34 -4 3 C-1.125 0 -1.125 0 0 0 Z " fill="#376ACC" transform="translate(320,290)"/>
<path d="M0 0 C0.66 0.66 1.32 1.32 2 2 C1.9765625 4.3828125 1.9765625 4.3828125 1.625 7.125 C1.51414062 8.03507813 1.40328125 8.94515625 1.2890625 9.8828125 C1.19367188 10.58148438 1.09828125 11.28015625 1 12 C0.67 12 0.34 12 0 12 C-0.19401633 10.18818595 -0.38004375 8.37551468 -0.5625 6.5625 C-0.66691406 5.55316406 -0.77132813 4.54382813 -0.87890625 3.50390625 C-0.91886719 2.67761719 -0.95882813 1.85132813 -1 1 C-0.67 0.67 -0.34 0.34 0 0 Z " fill="#729DD3" transform="translate(481,156)"/>
<path d="M0 0 C0.99 0.495 0.99 0.495 2 1 C2 1.66 2 2.32 2 3 C2.66 3 3.32 3 4 3 C4.66 4.65 5.32 6.3 6 8 C3.5625 7.375 3.5625 7.375 1 6 C0.1875 2.875 0.1875 2.875 0 0 Z " fill="#6A9AD3" transform="translate(439,129)"/>
<path d="M0 0 C0.66 0.33 1.32 0.66 2 1 C2 2.32 2 3.64 2 5 C-2.29 5 -6.58 5 -11 5 C-11 4.67 -11 4.34 -11 4 C-7.7 3.67 -4.4 3.34 -1 3 C-0.67 2.01 -0.34 1.02 0 0 Z " fill="#4874BD" transform="translate(120,111)"/>
<path d="M0 0 C-0.33 0.99 -0.66 1.98 -1 3 C-4.3 3.33 -7.6 3.66 -11 4 C-10 2 -10 2 -8.22265625 1.3671875 C-7.50980469 1.20476562 -6.79695313 1.04234375 -6.0625 0.875 C-5.35222656 0.70742188 -4.64195312 0.53984375 -3.91015625 0.3671875 C-2 0 -2 0 0 0 Z " fill="#517DC0" transform="translate(423,366)"/>
<path d="M0 0 C2.29633824 3.44450737 2.54016485 5.93812283 3 10 C2.67 9.01 2.34 8.02 2 7 C1.34 7 0.68 7 0 7 C-0.33 7.99 -0.66 8.98 -1 10 C-0.67 6.7 -0.34 3.4 0 0 Z " fill="#9AAADF" transform="translate(212,323)"/>
<path d="M0 0 C2.67927341 4.01891012 2.15601248 6.24161923 2 11 C-1.03333922 7.96666078 -0.6646334 5.2256192 -1 1 C-0.67 0.67 -0.34 0.34 0 0 Z " fill="#3B70D1" transform="translate(483,154)"/>
<path d="M0 0 C0.99 0 1.98 0 3 0 C3 0.66 3 1.32 3 2 C3.66 2 4.32 2 5 2 C5 2.66 5 3.32 5 4 C2.36 4.33 -0.28 4.66 -3 5 C-1.125 1.125 -1.125 1.125 0 0 Z " fill="#739BD5" transform="translate(222,127)"/>
<path d="M0 0 C0.66 0.66 1.32 1.32 2 2 C1.7578125 4.6015625 1.7578125 4.6015625 1.125 7.625 C0.81949219 9.12933594 0.81949219 9.12933594 0.5078125 10.6640625 C0.34023438 11.43492187 0.17265625 12.20578125 0 13 C-0.33 13 -0.66 13 -1 13 C-1.0272415 11.58344207 -1.04650467 10.16672955 -1.0625 8.75 C-1.07410156 7.96109375 -1.08570313 7.1721875 -1.09765625 6.359375 C-1.00385306 4.09308998 -0.63241063 2.1711105 0 0 Z " fill="#849DD4" transform="translate(284,300)"/>
<path d="M0 0 C0.66 0 1.32 0 2 0 C2 2.31 2 4.62 2 7 C1.01 6.67 0.02 6.34 -1 6 C-1.042721 4.33388095 -1.04063832 2.66617115 -1 1 C-0.67 0.67 -0.34 0.34 0 0 Z " fill="#3770D1" transform="translate(277,274)"/>
<path d="M0 0 C0.33 0 0.66 0 1 0 C1.309375 0.94875 1.61875 1.8975 1.9375 2.875 C2.87394742 5.86080408 2.87394742 5.86080408 4 8 C2.35 8 0.7 8 -1 8 C-1.125 2.25 -1.125 2.25 0 0 Z " fill="#3B6ACD" transform="translate(473,169)"/>
<path d="M0 0 C0.33 0.99 0.66 1.98 1 3 C1.66 3 2.32 3 3 3 C2.67 4.98 2.34 6.96 2 9 C1.34 9 0.68 9 0 9 C0 6.03 0 3.06 0 0 Z " fill="#6993CC" transform="translate(490,138)"/>
<path d="M0 0 C0.66 0 1.32 0 2 0 C2.26218749 3.14624993 2.24754367 4.61837017 0.5 7.3125 C-0.2425 8.1478125 -0.2425 8.1478125 -1 9 C-1.09765625 2.84765625 -1.09765625 2.84765625 -1 1 C-0.67 0.67 -0.34 0.34 0 0 Z " fill="#547BC5" transform="translate(215,138)"/>
<path d="M0 0 C0.99 0.33 1.98 0.66 3 1 C3 1.66 3 2.32 3 3 C4.32 3.33 5.64 3.66 7 4 C6.67 4.66 6.34 5.32 6 6 C4.35 5.67 2.7 5.34 1 5 C0.67 3.35 0.34 1.7 0 0 Z " fill="#89A2DC" transform="translate(354,112)"/>
<path d="M0 0 C0.66 0 1.32 0 2 0 C2 0.99 2 1.98 2 3 C2.66 3 3.32 3 4 3 C4 4.65 4 6.3 4 8 C3.34 8 2.68 8 2 8 C1.34 5.36 0.68 2.72 0 0 Z " fill="#688ECE" transform="translate(324,361)"/>
<path d="M0 0 C0.33 0 0.66 0 1 0 C1.07654536 4.51617599 1.10228696 8.59085217 0 13 C-0.33 13 -0.66 13 -1 13 C-2.0070238 7.96488101 -1.97387813 4.76052962 0 0 Z " fill="#8AA2DB" transform="translate(215,337)"/>
<path d="M0 0 C0.33 0 0.66 0 1 0 C1.33 3.3 1.66 6.6 2 10 C1.01 9.67 0.02 9.34 -1 9 C-0.67 6.03 -0.34 3.06 0 0 Z " fill="#899CCE" transform="translate(237,319)"/>
<path d="M0 0 C0.99 0.495 0.99 0.495 2 1 C2.4140625 3.06640625 2.4140625 3.06640625 2.625 5.5625 C2.69976562 6.38878906 2.77453125 7.21507812 2.8515625 8.06640625 C2.92503906 9.02353516 2.92503906 9.02353516 3 10 C0.64551835 7.44931155 0.01672076 6.28982642 -0.1875 2.75 C-0.125625 1.8425 -0.06375 0.935 0 0 Z " fill="#6183C5" transform="translate(283,313)"/>
<path d="M0 0 C0.66 0 1.32 0 2 0 C2 0.99 2 1.98 2 3 C2.99 3.33 3.98 3.66 5 4 C4.34 5.32 3.68 6.64 3 8 C0.37613513 4.93882432 0 4.26826873 0 0 Z " fill="#387BC2" transform="translate(223,313)"/>
<path d="M0 0 C0.33 0 0.66 0 1 0 C1.125 6.75 1.125 6.75 0 9 C-0.66 9 -1.32 9 -2 9 C-2.20140476 5.37471432 -1.85776765 3.13498292 0 0 Z " fill="#547AB9" transform="translate(481,310)"/>
<path d="M0 0 C0.33 0 0.66 0 1 0 C0.67 3.3 0.34 6.6 0 10 C-0.66 9.67 -1.32 9.34 -2 9 C-1.125 2.25 -1.125 2.25 0 0 Z " fill="#87A3D8" transform="translate(456,194)"/>
<path d="M0 0 C0.99 0.33 1.98 0.66 3 1 C2.34 3.97 1.68 6.94 1 10 C0.67 10 0.34 10 0 10 C0 6.7 0 3.4 0 0 Z " fill="#82A0D5" transform="translate(344,146)"/>
<path d="M0 0 C1.65 0 3.3 0 5 0 C5 1.65 5 3.3 5 5 C4.34 5 3.68 5 3 5 C3 4.01 3 3.02 3 2 C2.34 2 1.68 2 1 2 C0.67 2.66 0.34 3.32 0 4 C0 2.68 0 1.36 0 0 Z " fill="#769DD7" transform="translate(398,141)"/>
<path d="M0 0 C3.465 1.98 3.465 1.98 7 4 C7 4.66 7 5.32 7 6 C4.0625 5.25 4.0625 5.25 1 4 C0.125 1.875 0.125 1.875 0 0 Z " fill="#6D9DD7" transform="translate(232,134)"/>
<path d="M0 0 C0.33 0 0.66 0 1 0 C1 1.65 1 3.3 1 5 C0.34 5 -0.32 5 -1 5 C-1 5.66 -1 6.32 -1 7 C-1.66 7 -2.32 7 -3 7 C-3.33 6.01 -3.66 5.02 -4 4 C-2.68 3.34 -1.36 2.68 0 2 C0 1.34 0 0.68 0 0 Z " fill="#6489CE" transform="translate(187,131)"/>
<path d="M0 0 C0.33 0.66 0.66 1.32 1 2 C1.66 2.33 2.32 2.66 3 3 C1.47793991 5.62901288 0.15634036 7.84365964 -2 10 C-1.85950482 8.52031676 -1.71245174 7.04125484 -1.5625 5.5625 C-1.48128906 4.73878906 -1.40007812 3.91507813 -1.31640625 3.06640625 C-1 1 -1 1 0 0 Z " fill="#7B99D8" transform="translate(351,131)"/>
<path d="M0 0 C1.875 0.25 1.875 0.25 4 1 C5.25 3.0625 5.25 3.0625 6 5 C3.03 4.505 3.03 4.505 0 4 C0 2.68 0 1.36 0 0 Z " fill="#759ED8" transform="translate(433,124)"/>
<path d="M0 0 C0.33 0 0.66 0 1 0 C0.4140625 6.15234375 0.4140625 6.15234375 0 8 C-0.99 8.495 -0.99 8.495 -2 9 C-1.125 1.125 -1.125 1.125 0 0 Z " fill="#6183C4" transform="translate(292,275)"/>
<path d="M0 0 C1.46726798 3.81489674 0.43336419 6.29011622 -1 10 C-1.33 10 -1.66 10 -2 10 C-2 7.36 -2 4.72 -2 2 C-1.34 2 -0.68 2 0 2 C0 1.34 0 0.68 0 0 Z " fill="#799FD6" transform="translate(467,219)"/>
<path d="M0 0 C0.66 0 1.32 0 2 0 C1.67 1.98 1.34 3.96 1 6 C0.01 6 -0.98 6 -2 6 C-1.49396008 3.83125748 -1.00016187 2.00032373 0 0 Z " fill="#557CD2" transform="translate(291,132)"/>
<path d="M0 0 C-0.33 2.31 -0.66 4.62 -1 7 C-1.66 7 -2.32 7 -3 7 C-3 5.02 -3 3.04 -3 1 C-1 0 -1 0 0 0 Z " fill="#6886D3" transform="translate(16,109)"/>
<path d="M0 0 C2.125 0.375 2.125 0.375 4 1 C2.35 1.66 0.7 2.32 -1 3 C-1 3.66 -1 4.32 -1 5 C-1.99 5.33 -2.98 5.66 -4 6 C-2.84826645 3.53199953 -1.95216435 1.95216435 0 0 Z " fill="#8FA9D8" transform="translate(285,100)"/>
<path d="M0 0 C0.66 0 1.32 0 2 0 C2 2.31 2 4.62 2 7 C1.34 7 0.68 7 0 7 C0 4.69 0 2.38 0 0 Z " fill="#4E6787" transform="translate(384,160)"/>
<path d="M0 0 C1 4 1 4 1 4 Z " fill="#A6B5D1" transform="translate(386,154)"/>
</svg>
